<?xml version="1.0" encoding="UTF-8" standalone="no"?>
<svg
   xmlns:dc="http://purl.org/dc/elements/1.1/"
   xmlns:cc="http://creativecommons.org/ns#"
   xmlns:rdf="http://www.w3.org/1999/02/22-rdf-syntax-ns#"
   xmlns:svg="http://www.w3.org/2000/svg"
   xmlns="http://www.w3.org/2000/svg"
   xmlns:xlink="http://www.w3.org/1999/xlink"
   xmlns:sodipodi="http://sodipodi.sourceforge.net/DTD/sodipodi-0.dtd"
   xmlns:inkscape="http://www.inkscape.org/namespaces/inkscape"
   inkscape:version="1.0 (4035a4fb49, 2020-05-01)"
   sodipodi:docname="logo.svg"
   id="svg137"
   version="1.1"
   viewBox="0 0 220.875 29.562"
   height="29.562"
   width="220.875">
  <metadata
     id="metadata143">
    <rdf:RDF>
      <cc:Work
         rdf:about="">
        <dc:format>image/svg+xml</dc:format>
        <dc:type
           rdf:resource="http://purl.org/dc/dcmitype/StillImage" />
        <dc:title></dc:title>
      </cc:Work>
    </rdf:RDF>
  </metadata>
  <defs
     id="defs141">
    <clipPath
       id="b">
      <use
         xlink:href="#a"
         overflow="visible"
         id="use57" />
    </clipPath>
    <clipPath
       id="d">
      <use
         xlink:href="#c"
         overflow="visible"
         id="use63" />
    </clipPath>
    <clipPath
       id="f">
      <use
         id="use73"
         overflow="visible"
         xlink:href="#e" />
    </clipPath>
    <clipPath
       id="clipPath1309">
      <use
         id="use1307"
         overflow="visible"
         xlink:href="#e" />
    </clipPath>
    <clipPath
       id="clipPath1313">
      <use
         id="use1311"
         overflow="visible"
         xlink:href="#e" />
    </clipPath>
    <clipPath
       id="clipPath1317">
      <use
         id="use1315"
         overflow="visible"
         xlink:href="#e" />
    </clipPath>
    <clipPath
       id="clipPath1321">
      <use
         id="use1319"
         overflow="visible"
         xlink:href="#e" />
    </clipPath>
    <path
       id="c"
       d="M0 0h169v44H0z" />
    <path
       d="M0 0h168.7v44H0z"
       id="a" />
    <path
       d="M 0,0 H 169 V 44 H 0 Z"
       id="c-8" />
    <path
       d="M 0,0 H 169 V 44 H 0 Z"
       id="e" />
    <defs
       id="defs1771">
      <path
         id="path1858"
         d="M 0,0 H 169 V 44 H 0 Z" />
    </defs>
    <clipPath
       id="f-2">
      <use
         xlink:href="#e"
         overflow="visible"
         id="use1773"
         x="0"
         y="0"
         width="100%"
         height="100%" />
    </clipPath>
  </defs>
  <sodipodi:namedview
     inkscape:current-layer="g1871"
     inkscape:window-maximized="1"
     inkscape:window-y="-8"
     inkscape:window-x="-8"
     inkscape:cy="33.570152"
     inkscape:cx="62.485775"
     inkscape:zoom="7.4720418"
     showgrid="false"
     id="namedview139"
     inkscape:window-height="1027"
     inkscape:window-width="1920"
     inkscape:pageshadow="2"
     inkscape:pageopacity="0"
     guidetolerance="10"
     gridtolerance="10"
     objecttolerance="10"
     borderopacity="1"
     bordercolor="#666666"
     pagecolor="#ffffff" />
  <g
     transform="matrix(14.703193,0,0,14.35395,-2501.4806,-642.69872)"
     id="g1871">
    <g
       inkscape:export-ydpi="96"
       inkscape:export-xdpi="96"
       transform="matrix(0.07028181,0,0,0.08499307,166.36074,43.031042)"
       id="g1899">
      <g
         clip-path="url(#b-2)"
         id="g1768"
         transform="matrix(0.67660469,0,0,0.51141948,54.556789,21.497543)">
        <defs
           id="defs1761">
          <path
             id="path1851"
             d="M 0,0 H 169 V 44 H 0 Z" />
        </defs>
        <clipPath
           id="d-2">
          <use
             xlink:href="#c-8"
             overflow="visible"
             id="use1763"
             x="0"
             y="0"
             width="100%"
             height="100%" />
        </clipPath>
        <path
           clip-path="url(#d-2)"
           fill="#00b4b4"
           d="m 40.6,40.5 c 0,1.9 -1.4,3.5 -3.2,3.5 H 3.2 C 1.4,44 0,42.4 0,40.5 V 3.5 C 0,1.6 1.4,0 3.2,0 h 34.2 c 1.8,0 3.2,1.6 3.2,3.5 v 37"
           id="path1766" />
      </g>
      <path
         id="path1776"
         d="m 32.9,24.3 c -0.1,0.5 -0.2,0.9 -0.3,1.4 -0.3,2 -1.2,3.8 -1.8,5.7 -0.2,0.7 -0.4,1.3 -0.7,1.9 -0.3,0.6 -0.7,1.1 -1.2,1.5 -0.8,0.6 -1.7,0.9 -2.7,0.6 -1,-0.3 -1.5,-1 -1.5,-2 0,-0.6 -0.7,-1 -0.8,-0.4 -0.1,0.5 -0.4,1 -1,1.1 -2,0.6 -3.9,0.2 -5.4,-1.3 C 16.6,32 16,30.9 16,29.5 16,29 15.9,28.5 15.8,28 c 0,-0.4 0.1,-0.7 0.4,-1 0.7,-0.5 1.4,-1.1 1.8,-2 0.2,-0.4 0.5,-0.7 0.9,-1 0.5,-0.5 0.7,-1.5 0.4,-2.3 -0.5,-1.2 -0.4,-2.3 0,-3.4 C 19.4,17.9 19.4,17.5 19,17.2 18.6,16.8 18.3,16.4 18,16 17.6,15.5 17.6,14.9 17.5,14.3 17.4,13.5 17.1,12.7 17,11.9 16.8,10.8 16.7,9.7 16.6,8.7 c -0.1,-0.5 0,-1.1 0,-1.6 0,-0.1 0.1,-0.3 0.1,-0.4 0.4,-0.9 0.9,-1.2 1.6,-1 0.7,0.1 1.1,0.8 1.2,1.7 0,0.7 0.3,1.3 0.2,2 -0.1,1.1 0.6,1.9 0.6,2.9 0,1 0.4,1.7 0.9,2.5 0.4,0.5 0.3,1.1 0.2,1.6 -0.2,0.8 -0.1,1 0.6,1.3 0.6,0.3 1.1,0.4 1.7,0.6 H 24 c 1.2,-0.4 2.2,0.1 3.2,0.5 0.3,0.2 0.5,0.4 0.1,0.8 -0.1,0.1 -0.2,0.4 -0.1,0.6 0,0.1 0.3,0.2 0.4,0.2 0.1,0 0.2,0 0.3,0.1 0.4,0.3 0.9,0.2 1.4,0.2 0.6,-0.1 1,0.3 1.4,0.7 0.3,0.3 0.5,0.7 0.9,0.9 0.5,0.3 0.7,0.7 1,1.2 0.2,0.1 0.2,0.4 0.3,0.8"
         fill="#ffffff"
         clip-path="url(#f-2)"
         transform="matrix(0.67660469,0,0,0.51141948,54.556789,21.497543)" />
      <path
         id="path1778"
         d="M 27.3,5.7 C 27.2,6.5 27,7.3 27,8 v 1.1 c 0.1,0.8 0,1.4 -0.7,1.8 -0.4,0.2 -0.4,0.5 -0.2,0.9 0.4,0.6 0.6,1.3 0.6,2.1 0,0.8 -0.4,1.5 -0.9,1.6 -0.4,0.1 -1.3,-0.5 -1.6,-1 -0.5,-0.9 -0.4,-1.9 0.3,-2.7 0.6,-0.7 0.5,-0.7 0.2,-1.5 C 24.5,9.9 24.4,9.4 24.4,9 24.3,7.6 24.2,6.1 24.6,4.7 24.7,4.3 25,3.8 25.3,3.5 25.6,3.1 26.1,3 26.6,3.1 c 0.6,0.2 0.7,0.6 0.8,1.2 -0.1,0.5 -0.2,1 -0.1,1.4 -0.1,0 0,0 0,0 m 4.6,3.9 c 0,-1.1 0.2,-2.1 1.1,-2.8 0.5,-0.5 1,-0.5 1.5,-0.3 0.5,0.3 0.6,0.7 0.5,1.4 -0.1,1.1 -0.6,2 -1.2,2.9 -0.2,0.4 -0.4,0.8 -0.5,1.2 -0.4,1.2 -0.9,2.4 -1.3,3.7 -0.1,0.2 -0.2,0.5 -0.2,0.7 -0.3,0.7 -0.8,1.2 -1.6,1.4 -0.1,0 -0.4,0 -0.5,-0.1 -0.6,-0.6 -0.9,-1.8 -0.5,-2.6 0.3,-0.5 0.6,-0.9 1,-1.4 1.1,-1.2 1.6,-2.5 1.7,-4.1 M 14.7,21 c 0,0.1 -0.1,0.1 -0.1,0.2 -0.3,0.8 -0.6,0.9 -1.4,0.5 -0.5,-0.3 -0.8,-0.7 -1,-1.2 -0.4,-0.9 -0.7,-1.8 -1.1,-2.7 -0.2,-0.4 -0.2,-0.7 0.1,-1 0.3,-0.3 0.8,-0.5 1.1,-0.3 1.2,0.7 2.4,1.4 2.6,3 0,0.5 -0.1,1 -0.2,1.5 0.1,0.1 0,0 0,0 m 24.1,-5.7 c -0.2,0.4 -0.3,0.9 -0.6,1.2 -0.4,0.5 -0.9,0.9 -1.4,1.3 -0.1,0.1 -0.2,0.3 -0.3,0.4 -0.4,0.4 -0.7,0.8 -1.2,1.2 -0.4,0.3 -0.6,0.1 -0.6,-0.4 v -0.6 c 0,-0.3 0,-0.6 0.1,-0.8 l 1.5,-2.7 c 0.2,-0.3 0.5,-0.5 0.8,-0.7 0.8,-0.4 1.7,0.1 1.7,1.1 M 5.5,35.5 c 0.1,0.2 0.2,0.3 0.3,0.5 0.4,0.8 1,1.4 1.5,2 0.2,0.2 0.3,0.5 0.6,0.7 0.2,0.2 0.4,0.4 0.7,0.4 0.4,0.2 0.8,0.2 1.2,-0.1 0.3,-0.3 0.5,-0.6 0.3,-1 -0.1,-0.2 0.2,-0.5 0.3,-0.3 0.1,0.2 0.3,0.3 0.6,0.3 0.9,-0.1 1.6,-0.5 2,-1.3 0.2,-0.5 0.3,-1 0.1,-1.5 C 13,35 13,34.8 13,34.6 13,34.4 12.9,34.3 12.7,34.3 12.3,34.2 12,34.1 11.7,33.8 11.6,33.7 11.4,33.6 11.2,33.5 10.9,33.4 10.7,33 10.7,32.6 c 0,-0.5 -0.2,-1 -0.5,-1.4 -0.1,-0.2 -0.1,-0.3 -0.1,-0.5 0.1,-0.2 0.2,-0.4 0.2,-0.6 0.1,-0.3 0,-0.5 -0.1,-0.8 C 10.1,29 10.1,28.6 10.1,28.2 10,27.9 9.9,27.4 9.8,27 9.7,26.8 9.6,26.6 9.6,26.4 9.6,26.3 9.5,26.3 9.5,26.3 9.2,26 9,26 8.7,26.1 c -0.2,0.2 -0.3,0.5 -0.2,0.8 0.1,0.3 0.1,0.6 0.2,0.8 0.2,0.4 0,0.9 0.2,1.3 0.1,0.4 0.1,0.7 0,1.1 -0.1,0.2 0,0.5 0.2,0.7 0.2,0.3 0.2,0.4 -0.1,0.6 -0.2,0.2 -0.4,0.3 -0.6,0.5 H 8.3 c -0.5,0 -0.9,0.4 -1.2,0.7 -0.1,0.1 -0.1,0.2 0.1,0.3 0.1,0 0.1,0.1 0.1,0.2 l -0.1,0.1 c 0,0 -0.1,0 -0.1,0.1 -0.1,0.2 -0.3,0.2 -0.5,0.3 -0.5,0 -0.6,0.2 -0.7,0.4 -0.1,0.2 -0.1,0.4 -0.2,0.5 -0.2,0.2 -0.2,0.4 -0.2,0.6 -0.1,0.2 0,0.3 0,0.4"
         fill="#ffffff"
         clip-path="url(#f-2)"
         transform="matrix(0.67660469,0,0,0.51141948,54.556789,21.497543)" />
      <path
         id="path1780"
         d="m 5.1,27.3 c 0.2,0.3 0.3,0.6 0.5,0.9 0.1,0.1 0.1,0.3 0.2,0.4 0.1,0.3 0.2,0.6 0.6,0.6 0.2,0 0.2,0.2 0.2,0.3 -0.1,0.3 -0.1,0.6 0.1,0.9 0.1,0.3 0.4,0.5 0.6,0.5 0.2,0 0.5,-0.4 0.5,-0.6 C 7.9,29.9 7.7,29.5 7.3,29.3 7,29.1 7,29.1 7,28.7 7,28.5 7,28.3 6.9,28.1 6.7,27.5 6.6,26.9 6.2,26.4 6.1,26.2 5.9,26.1 5.7,26 5.5,25.9 5.3,25.9 5.1,26 4.9,26.2 4.9,26.4 5,26.6 c 0,0.3 0.1,0.5 0.1,0.7 0.1,0 0,0 0,0 M 3.8,29.5 C 3.7,29.1 3.4,28.7 3,28.5 2.7,28.4 2.5,28.4 2.4,28.6 c -0.2,0.2 -0.2,0.4 0,0.7 0.2,0.4 0.5,0.7 0.9,1 l 0.4,0.4 c 0.3,0.4 0.7,0.9 1,1.3 0.1,0.1 0.1,0.2 0.2,0.2 0.2,0.2 0.5,0.4 0.8,0.4 0.1,0 0.2,-0.1 0.2,-0.1 C 6.1,32.2 6,31.6 5.7,31.4 5.5,31.2 5.3,31.1 5.1,31 4.5,30.6 4.1,30.1 3.8,29.5 m 8.6,2.4 c 0,0 0,0.1 0,0 0.4,0.3 0.5,0.3 0.7,-0.1 0.1,-0.2 0.1,-0.4 0.1,-0.7 -0.1,-0.4 -0.1,-0.8 -0.2,-1.2 0,-0.2 -0.1,-0.3 -0.3,-0.3 -0.2,-0.1 -0.4,0 -0.5,0.2 -0.3,0.5 -0.6,1 -0.3,1.7 0.2,0.1 0.3,0.3 0.5,0.4 m -10.5,0.9 0.4,0.4 c 0.2,0.1 0.5,0.2 0.8,0.3 0.1,0 0.1,0.1 0.2,0.1 l 0.6,0.3 C 4,34 4.1,33.9 4,33.7 4,33.6 4,33.5 3.9,33.5 3.9,33.4 3.8,33.3 3.7,33.2 3.4,32.9 3,32.6 2.7,32.3 2.6,32.2 2.4,32.2 2.3,32.1 2,32 1.7,32.4 1.9,32.8"
         fill="#ffffff"
         clip-path="url(#f-2)"
         transform="matrix(0.67660469,0,0,0.51141948,54.556789,21.497543)" />
      <path
         id="path1782"
         d="m 17.8,20.6 -0.3,-0.3 c 0,-0.1 -0.1,-0.2 -0.1,-0.2 h 0.8 c 0.2,0 0.4,0 0.6,0.1 -0.2,0.4 -0.6,0.3 -1,0.4 m 0.7,-2 0.5,0.5 c -0.3,0.1 -0.5,0.3 -0.6,0.2 -0.4,-0.3 0,-0.4 0.1,-0.7 m -0.9,0.7 c -0.2,0 -0.5,0 -0.8,-0.1 C 17,19.1 17,19 17.1,19 c 0.2,0 0.4,0.1 0.6,0.2 0,0 -0.1,0 -0.1,0.1 m 2.1,2 c -0.2,-0.1 -0.4,-0.2 -0.5,-0.2 0,0 0,-0.1 0.1,-0.1 0.1,-0.1 0.4,-0.2 0.4,0.3 m 1.1,-2.8 -0.4,0.3 -0.1,0.2 c 0,0 -0.3,0.2 -0.1,0.2 0.2,0.1 0.4,0.1 0.5,0.1 0.1,0 0.4,-0.3 0.4,-0.3 l 0.4,0.1 -0.7,-0.6 m -0.9,2.2 c 0,0 0.2,-0.3 0.5,0 0.3,0.3 0.2,0.2 0.2,0.3 0,0.2 0.5,0.3 0.2,0.2 l -0.4,-0.1 -0.5,-0.4 m 4.4,-0.4 c 0,0 0.4,1 0.3,1 -0.1,-0.1 -0.4,-0.5 -0.4,-0.4 -0.1,0.1 0,-0.3 0,-0.3 0,0 -0.2,0.1 -0.4,0 -0.2,-0.1 0.5,-0.3 0.5,-0.3 m 6.4,4.1 c 0.1,0.1 0.2,0.1 0.2,0.2 0,0 0.1,0.1 0.1,0.2 h -0.2 c -0.2,0 -0.3,0 -0.5,0.1 h -0.4 c 0.1,-0.4 0.5,-0.4 0.8,-0.5 m -0.3,1.5 c -0.1,-0.1 -0.2,-0.2 -0.4,-0.3 0.2,-0.1 0.3,-0.3 0.4,-0.2 0.3,0.1 0,0.3 0,0.5 m 0.5,-0.6 h 0.6 c -0.1,0.1 -0.1,0.2 -0.2,0.2 h -0.4 v -0.2 m -1.7,-1.2 c 0.2,0 0.3,0.1 0.4,0.1 v 0.1 c -0.2,0.1 -0.3,0.2 -0.4,-0.2 M 28.7,26.3 29,26 29.1,25.8 c 0,0 0.2,-0.2 0.1,-0.2 h -0.4 c -0.1,0 -0.2,0.3 -0.2,0.3 l -0.3,-0.1 0.4,0.5 m 0.4,-1.7 c 0,0 -0.1,0.3 -0.3,0.1 -0.3,-0.2 -0.2,-0.1 -0.2,-0.2 0,-0.1 -0.4,-0.1 -0.1,-0.1 h 0.3 l 0.3,0.2 M 26,25.5 c 0,0 -0.4,-0.7 -0.3,-0.6 0.1,0 0.3,0.3 0.4,0.2 v 0.2 c 0,0 0.1,-0.1 0.3,-0.1 0.1,0 -0.4,0.3 -0.4,0.3 m 11.5,-6.9 c 0.1,0.1 0.3,0.2 0.4,0.3 0.1,0.1 0.1,0.2 0.1,0.3 h -0.2 c -0.2,0 -0.5,0.1 -0.7,0.1 -0.2,0 -0.5,0 -0.7,0.1 0.1,-0.7 0.7,-0.7 1.1,-0.8 m -0.4,2.3 C 36.9,20.7 36.7,20.6 36.5,20.4 36.8,20.2 37,20 37.2,20 c 0.4,0.3 -0.1,0.6 -0.1,0.9 M 37.9,20 c 0.3,0 0.5,0 0.9,-0.1 -0.1,0.2 -0.2,0.3 -0.3,0.3 -0.2,0 -0.5,0 -0.7,-0.1 0.1,0 0.1,0 0.1,-0.1 m -2.7,-1.9 c 0.2,0.1 0.4,0.1 0.6,0.2 v 0.2 c -0.2,0 -0.5,0.2 -0.6,-0.4 m -0.7,3.4 0.3,-0.4 0.2,-0.3 c 0,0 0.3,-0.3 0.1,-0.3 -0.2,-0.1 -0.5,-0.1 -0.6,-0.1 -0.1,0 -0.4,0.4 -0.4,0.4 l -0.4,-0.1 0.8,0.8 m 0.6,-2.6 c 0,0 -0.1,0.4 -0.5,0.1 -0.4,-0.3 -0.3,-0.2 -0.3,-0.3 -0.1,-0.2 -0.7,-0.2 -0.2,-0.2 h 0.4 l 0.6,0.4 m -4.9,1.3 c 0,0 -0.6,-1.1 -0.5,-1 0.1,0 0.5,0.5 0.6,0.4 V 20 c 0,0 0.2,-0.1 0.5,-0.1 0.2,0 -0.6,0.3 -0.6,0.3 M 29.6,6.6 c 0.1,0 0.1,0.1 0.2,0.1 0,0 0,0.1 0.1,0.1 h -0.7 c 0,-0.1 0.2,-0.1 0.4,-0.2 m -0.2,1 C 29.3,7.5 29.2,7.5 29.1,7.4 c 0.1,-0.1 0.2,-0.2 0.3,-0.2 0.2,0.2 0,0.3 0,0.4 m 0.4,-0.4 h 0.4 l -0.1,0.1 c -0.1,0 -0.2,0 -0.3,-0.1 0,0.1 0,0.1 0,0 M 28.6,6.4 c 0.1,0 0.2,0 0.3,0.1 v 0.1 c -0.1,0 -0.3,0.1 -0.3,-0.2 m -0.3,1.5 0.1,-0.2 0.1,-0.1 c 0,0 0.1,-0.1 0,-0.1 H 28.2 L 28,7.7 h -0.2 l 0.5,0.2 m 0.2,-1.1 c 0,0 -0.1,0.2 -0.2,0 C 28.1,6.7 28.2,6.7 28.2,6.7 28.2,6.6 27.9,6.6 28.1,6.6 h 0.2 l 0.2,0.2 m -2,0.5 c 0,0 -0.3,-0.5 -0.2,-0.4 l 0.2,0.2 v 0.2 c 0,0 0.1,-0.1 0.2,0 0.1,-0.1 -0.2,0 -0.2,0 m 3.3,22.4 c 0.1,0 0.1,0.1 0.2,0.1 0,0 0,0.1 0.1,0.1 h -0.7 c 0,-0.2 0.2,-0.2 0.4,-0.2 m -0.2,1 c -0.1,-0.1 -0.2,-0.1 -0.3,-0.2 0.1,-0.1 0.2,-0.2 0.3,-0.2 0.2,0.1 0,0.2 0,0.4 M 30,30.3 h 0.4 l -0.1,0.1 c -0.1,0 -0.2,0 -0.3,-0.1 m -1.2,-0.9 c 0.1,0 0.2,0 0.3,0.1 v 0.1 c -0.1,0 -0.2,0.1 -0.3,-0.2 m -0.3,1.5 0.1,-0.2 0.1,-0.1 c 0,0 0.1,-0.1 0,-0.1 h -0.3 l -0.2,0.2 H 28 l 0.5,0.2 m 0.3,-1.1 c 0,0 -0.1,0.2 -0.2,0 -0.2,-0.1 -0.1,-0.1 -0.1,-0.1 0,-0.1 -0.3,-0.1 -0.1,-0.1 h 0.2 l 0.2,0.2 m -2.1,0.6 c 0,0 -0.3,-0.5 -0.2,-0.4 l 0.2,0.2 v 0.2 c 0,0 0.1,-0.1 0.2,0 0.1,-0.2 -0.2,0 -0.2,0 m -0.3,-8.5 c 0,0.1 -0.1,0.1 -0.1,0.2 v 0.1 h 0.1 c 0.1,0 0.3,-0.1 0.4,-0.1 0.1,0 0.2,-0.1 0.4,-0.1 -0.3,-0.2 -0.6,-0.1 -0.8,-0.1 m 0.6,0.8 c 0.1,-0.1 0.1,-0.2 0.2,-0.3 -0.2,0 -0.3,-0.1 -0.4,0 -0.2,0.2 0.1,0.2 0.2,0.3 m -0.6,-0.2 c -0.1,0 -0.3,0.1 -0.5,0.1 0.1,0 0.1,0.1 0.2,0.1 0.1,0 0.2,-0.1 0.3,-0.2 0,0.1 0,0 0,0 m 1.1,-1.2 c -0.1,0.1 -0.2,0.1 -0.3,0.2 v 0.1 c 0.2,-0.1 0.3,0 0.3,-0.3 m 0.9,1.2 -0.2,-0.1 H 28 c 0,0 -0.2,0 -0.1,-0.1 0.1,-0.1 0.2,-0.1 0.3,-0.1 0.1,0 0.3,0.1 0.3,0.1 l 0.2,-0.1 -0.3,0.3 m -0.7,-0.9 c 0,0 0.1,0.1 0.3,-0.1 0.2,-0.2 0.1,-0.1 0.1,-0.2 0,-0.1 0.3,-0.2 0.1,-0.1 l -0.2,0.1 -0.3,0.3 m 2.7,-0.3 c 0,0 0.2,-0.5 0.1,-0.5 l -0.2,0.3 c -0.1,-0.1 0,0.1 0.1,0.2 -0.1,-0.1 -0.2,-0.1 -0.3,-0.1 -0.2,0.1 0.3,0.1 0.3,0.1 m -16.6,5.2 c 0,0.1 -0.1,0.1 -0.1,0.2 v 0.1 h 0.1 c 0.1,0 0.3,-0.1 0.4,-0.1 0.1,0 0.2,-0.1 0.4,-0.1 -0.3,-0.3 -0.6,-0.2 -0.8,-0.1 m 0.6,0.8 c 0.1,-0.1 0.1,-0.2 0.2,-0.3 -0.2,0 -0.3,-0.1 -0.4,0 -0.1,0.2 0.1,0.2 0.2,0.3 m -0.6,-0.2 c -0.1,0 -0.3,0.1 -0.5,0.1 0.1,0 0.1,0.1 0.2,0.1 0.1,0 0.2,-0.1 0.3,-0.2 m 1.1,-1.2 C 14.8,26 14.7,26 14.6,26.1 v 0.1 c 0.2,-0.1 0.3,-0.1 0.3,-0.3 m 0.9,1.2 -0.2,-0.1 -0.1,-0.1 c 0,0 -0.2,0 -0.1,-0.1 0.1,-0.1 0.2,-0.1 0.3,-0.1 0.1,0 0.3,0.1 0.3,0.1 l 0.2,-0.1 -0.4,0.4 m -0.7,-0.9 c 0,0 0.1,0.1 0.3,-0.1 0.2,-0.2 0.1,-0.1 0.1,-0.2 0,-0.1 0.3,-0.2 0.1,-0.1 l -0.2,0.1 -0.3,0.3 m 2.7,-0.3 0.1,-0.5 -0.2,0.3 v 0.1 h -0.3 c -0.1,0.1 0.4,0.1 0.4,0.1 m 0.8,1.4 h -0.2 c 0,0 -0.1,0 -0.1,0.1 0,0 0.1,0 0.1,0.1 0.1,0.1 0.2,0.1 0.3,0.2 0.1,0.1 0.2,0.1 0.3,0.2 0.1,-0.4 -0.2,-0.5 -0.4,-0.6 m -0.2,1 h 0.4 C 18.7,28.2 18.6,28 18.5,28 c -0.2,-0.1 0,0.1 -0.1,0.3 m -0.2,-0.6 c -0.1,-0.1 -0.2,-0.1 -0.4,-0.2 0,0.1 0,0.2 0.1,0.2 0,0 0.1,0.1 0.3,0 0,0.1 0,0.1 0,0 m 1.6,-0.1 c -0.1,0 -0.2,-0.1 -0.3,-0.1 v 0.1 c 0,0.1 0.1,0.2 0.3,0 m -0.2,1.5 -0.1,-0.3 v -0.1 c 0,0 -0.1,-0.2 0,-0.1 0.1,0 0.3,0.1 0.3,0.1 l 0.1,0.2 0.2,0.1 -0.5,0.1 m 0.1,-1.2 c 0,0 0,0.2 0.2,0.2 0.2,0 0.1,0 0.2,-0.1 0.1,-0.1 0.3,0.1 0.1,0 L 20,27.9 h -0.3 m 2.2,1.7 c 0,0 0.5,-0.3 0.4,-0.3 -0.1,0 -0.3,0.1 -0.3,0 0,-0.1 -0.1,0.1 -0.1,0.1 l -0.2,-0.2 c -0.2,0.1 0.2,0.4 0.2,0.4 m -5.3,-5.4 c -0.1,0.1 -0.3,0.1 -0.4,0.2 -0.1,0 -0.1,0.1 -0.1,0.1 0.1,0 0.2,0 0.3,-0.1 0.3,-0.1 0.6,-0.1 0.9,-0.2 0.3,-0.1 0.6,-0.1 0.8,-0.2 -0.3,-0.1 -1,0.1 -1.5,0.2 m 4.3,-1.1 C 21,23 21,22.9 21.1,22.8 c -0.2,0 -0.3,-0.1 -0.4,0 -0.1,0.2 0.2,0.2 0.2,0.3 m -0.5,-0.2 c -0.1,0 -0.3,0.1 -0.5,0.1 0.1,0 0.1,0.1 0.2,0.1 0.1,0 0.2,-0.1 0.3,-0.2 m 1,-1.2 c -0.1,0.1 -0.2,0.1 -0.3,0.2 V 22 c 0.2,-0.1 0.4,-0.1 0.3,-0.3 m 1,3.6 -0.2,-0.1 -0.2,-0.1 c 0,0 -0.2,0 -0.1,-0.1 0.1,-0.1 0.2,-0.1 0.3,-0.1 0.1,0 0.3,0.1 0.3,0.1 l 0.2,-0.1 -0.3,0.4 M 21.6,22 c 0,0 0.1,0.1 0.3,-0.1 0.2,-0.2 0.1,-0.1 0.1,-0.2 0,-0.1 0.3,-0.2 0.1,-0.1 l -0.2,0.1 -0.3,0.3 m 2.7,-0.3 0.1,-0.5 -0.2,0.3 v 0.1 h -0.3 c 0,0.1 0.4,0.1 0.4,0.1 M 20.1,11.5 19.8,11.2 C 19.8,11.1 19.7,11 19.7,11 h 0.8 c 0.2,0 0.4,0 0.6,0.1 -0.1,0.5 -0.6,0.4 -1,0.4 M 20.8,5.6 C 21,5.7 21.1,5.8 21.3,6 21,6.1 20.8,6.3 20.7,6.2 20.3,6 20.8,5.9 20.8,5.6 M 20,10.2 c -0.2,0 -0.5,0 -0.8,-0.1 0.1,-0.1 0.2,-0.2 0.3,-0.2 0.2,0 0.4,0.1 0.6,0.2 -0.1,0 -0.1,0.1 -0.1,0.1 m 2,2.1 c -0.2,-0.1 -0.4,-0.2 -0.5,-0.2 0,0 0,-0.1 0.1,-0.1 0.2,-0.1 0.4,-0.2 0.4,0.3 M 23.2,9.5 22.8,9.8 22.6,10 c 0,0 -0.3,0.2 -0.1,0.2 0.2,0.1 0.4,0.1 0.5,0.1 0.1,0 0.4,-0.3 0.4,-0.3 l 0.4,0.1 -0.6,-0.6 m -0.9,2.1 c 0,0 0.2,-0.3 0.5,0 0.3,0.4 0.2,0.2 0.2,0.4 0,0.2 0.5,0.3 0.2,0.2 l -0.4,-0.1 -0.5,-0.5 m 4.4,-0.4 c 0,0 0.4,1 0.3,1 -0.1,-0.1 -0.4,-0.5 -0.4,-0.4 -0.1,0.1 0,-0.3 0,-0.3 0,0 -0.2,0.1 -0.4,0 -0.3,-0.1 0.5,-0.3 0.5,-0.3 m -7.8,20.5 c 0,0.1 0,0.1 0.1,0.2 V 32 h -0.1 c -0.1,0 -0.1,-0.1 -0.2,-0.1 l -0.1,-0.1 c 0.1,-0.2 0.2,-0.1 0.3,-0.1 m -0.2,0.8 c 0,-0.1 -0.1,-0.2 -0.1,-0.3 0.1,0 0.1,-0.1 0.2,0 0,0.2 -0.1,0.2 -0.1,0.3 m 0.2,-0.2 c 0.1,0 0.1,0.1 0.2,0.1 L 19,32.5 c 0,0 -0.1,-0.1 -0.1,-0.2 0,0.1 0,0 0,0 m -0.4,-1.2 c 0,0.1 0.1,0.1 0.1,0.2 v 0.1 c -0.1,-0.1 -0.1,0 -0.1,-0.3 m -0.4,1.2 0.1,-0.1 0.1,-0.1 c 0,0 0.1,0 0,-0.1 0,-0.1 -0.1,-0.1 -0.1,-0.1 L 18.1,32 18,31.9 l 0.1,0.4 m 0.3,-0.9 c 0,0 -0.1,0.1 -0.1,-0.1 -0.1,-0.2 0,-0.1 0,-0.2 0,-0.1 -0.1,-0.2 0,-0.1 l 0.1,0.1 v 0.3 m -1.1,-0.3 c 0,0 -0.1,-0.5 0,-0.5 l 0.1,0.3 c 0,-0.1 0,0.1 -0.1,0.2 0,-0.1 0.1,-0.1 0.1,-0.1 0.1,0.1 -0.1,0.1 -0.1,0.1 M 17,32.5 c 0.1,0 0.1,0 0,0 l 0.1,0.1 v 0.1 c 0,0.1 -0.1,0.1 -0.1,0.2 0,0.1 -0.1,0.1 -0.1,0.2 -0.1,-0.3 0,-0.5 0.1,-0.6 m 0.1,1 H 17 c 0,-0.1 0.1,-0.3 0.1,-0.3 v 0.3 M 17.2,33 c 0,-0.1 0.1,-0.1 0.2,-0.2 V 33 c -0.1,-0.1 -0.2,0 -0.2,0 m -0.6,-0.2 0.1,-0.1 v 0.1 c -0.1,0.1 -0.1,0.2 -0.1,0 m 0,1.6 v -0.5 c 0,0 0.1,-0.2 0,-0.1 l -0.1,0.1 v 0.2 l -0.1,0.1 0.2,0.2 m 0,-1.2 c 0,0 0,0.2 -0.1,0.2 -0.1,0 -0.1,0 -0.1,-0.1 0,-0.1 -0.1,0.1 -0.1,0 l 0.1,-0.1 h 0.2 m -0.9,1.6 -0.2,-0.3 c 0,0 0.1,0.1 0.1,0 v 0.1 c 0,0 0,-0.1 0.1,-0.2 0.2,0.1 0,0.4 0,0.4 M 30.3,12.1 c 0,0.1 -0.1,0.1 -0.1,0.2 v 0.1 h 0.1 c 0.1,0 0.3,-0.1 0.4,-0.1 0.1,0 0.2,-0.1 0.4,-0.1 -0.3,-0.2 -0.6,-0.1 -0.8,-0.1 m 0.6,0.9 c 0.1,-0.1 0.1,-0.2 0.2,-0.3 -0.2,0 -0.3,-0.1 -0.4,0 -0.2,0.2 0.1,0.2 0.2,0.3 m -0.6,-0.2 c -0.1,0 -0.3,0.1 -0.5,0.1 0.1,0.1 0.2,0.1 0.2,0.1 0.1,-0.1 0.2,-0.1 0.3,-0.2 m 1,-1.2 c -0.1,0.1 -0.2,0.1 -0.3,0.2 v 0.1 c 0.2,-0.1 0.4,-0.1 0.3,-0.3 m 1,1.2 -0.3,-0.1 -0.1,-0.1 c 0,0 -0.2,0 -0.1,-0.1 0.1,-0.1 0.2,-0.1 0.3,-0.1 0.1,0 0.3,0.1 0.3,0.1 l 0.2,-0.1 -0.3,0.4 m -0.7,-0.9 c 0,0 0.1,0.1 0.3,-0.1 0.2,-0.2 0.1,-0.1 0.1,-0.2 0,-0.1 0.3,-0.2 0.1,-0.1 l -0.2,0.1 -0.3,0.3 m 2.6,-0.3 0.1,-0.5 -0.2,0.3 v 0.1 h -0.3 c 0,0.1 0.4,0.1 0.4,0.1 m 0.9,1.3 h -0.2 c 0,0 -0.1,0 -0.1,0.1 0,0 0.1,0 0.1,0.1 0.1,0.1 0.2,0.1 0.3,0.2 0.1,0.1 0.2,0.1 0.3,0.2 0,-0.3 -0.2,-0.4 -0.4,-0.6 M 34.9,14 h 0.4 C 35.2,13.9 35.1,13.7 35,13.7 34.8,13.6 34.9,13.8 34.9,14 m -0.3,-0.6 c -0.1,-0.1 -0.2,-0.1 -0.4,-0.2 0,0.1 0,0.2 0.1,0.2 0.1,0 0.2,0.1 0.3,0 0,0.1 0,0 0,0 m 1.6,-0.1 c -0.1,0 -0.2,-0.1 -0.3,-0.1 v 0.1 c 0.1,0.1 0.2,0.2 0.3,0 M 36.1,14.8 36,14.6 v -0.1 c 0,0 -0.1,-0.2 0,-0.1 0.1,0 0.3,0.1 0.3,0.1 l 0.1,0.2 0.2,0.1 h -0.5 m 0.1,-1.2 c 0,0 0,0.2 0.2,0.2 0.2,0 0.1,0 0.2,-0.1 0.1,-0.1 0.3,0.1 0.1,0 l -0.2,-0.1 h -0.3 m 2.1,1.7 c 0,0 0.5,-0.3 0.4,-0.3 -0.1,0 -0.3,0.1 -0.3,0 0,-0.1 -0.1,0.1 -0.1,0.1 l -0.2,-0.2 c -0.1,0 0.2,0.4 0.2,0.4 M 9.7,19 c 0,0.1 -0.1,0.1 -0.1,0.2 v 0.1 h 0.1 c 0.1,0 0.3,-0.1 0.4,-0.1 0.1,0 0.2,-0.1 0.4,-0.1 C 10.2,18.9 9.9,19 9.7,19 m 0.6,0.9 c 0.1,-0.1 0.1,-0.2 0.2,-0.3 -0.2,0 -0.3,-0.1 -0.4,0 -0.2,0.1 0.1,0.1 0.2,0.3 M 9.7,19.7 c -0.1,0 -0.3,0.1 -0.5,0.1 0.1,0 0.1,0.1 0.2,0.1 0.1,-0.1 0.2,-0.1 0.3,-0.2 m 1.1,-1.3 c -0.1,0.1 -0.2,0.1 -0.3,0.2 v 0.1 c 0.2,0 0.3,0 0.3,-0.3 m 0.9,1.3 -0.2,-0.1 -0.1,-0.1 c 0,0 -0.2,0 -0.1,-0.1 0.1,-0.1 0.2,-0.1 0.3,-0.1 0.1,0 0.3,0.1 0.3,0.1 l 0.2,-0.1 -0.4,0.4 m -0.7,-1 c 0,0 0.1,0.1 0.3,-0.1 0.2,-0.2 0.1,-0.1 0.1,-0.2 0,-0.1 0.3,-0.2 0.1,-0.1 l -0.2,0.1 -0.3,0.3 m 2.7,-0.2 c 0,0 0.2,-0.5 0.1,-0.5 l -0.2,0.3 c -0.1,-0.1 0,0.1 0.1,0.2 -0.1,-0.1 -0.2,-0.1 -0.3,-0.1 -0.2,0 0.3,0.1 0.3,0.1 m 0.8,1.3 h -0.2 c 0,0 -0.1,0 -0.1,0.1 0,0 0.1,0 0.1,0.1 0.1,0.1 0.2,0.1 0.3,0.2 0.1,0.1 0.2,0.1 0.3,0.2 0,-0.3 -0.2,-0.4 -0.4,-0.6 m -0.2,1 h 0.4 c -0.1,-0.1 -0.2,-0.3 -0.3,-0.3 -0.2,0 0,0.2 -0.1,0.3 m -0.2,-0.5 c -0.1,-0.1 -0.2,-0.1 -0.4,-0.2 0,0.1 0,0.2 0.1,0.2 h 0.3 m 1.6,-0.2 C 15.6,20.1 15.5,20 15.4,20 v 0.1 c 0,0.1 0.1,0.3 0.3,0 m -0.2,1.6 -0.1,-0.3 v -0.2 c 0,0 -0.1,-0.2 0,-0.1 0.1,0 0.3,0.1 0.3,0.1 l 0.1,0.2 0.2,0.1 -0.5,0.2 m 0.1,-1.2 c 0,0 0,0.2 0.2,0.2 0.2,0 0.1,0 0.2,-0.1 0.1,-0.1 0.3,0.1 0.1,0 L 16,20.5 h -0.4 m 2.2,1.7 c 0,0 0.5,-0.3 0.4,-0.3 -0.1,0 -0.3,0.1 -0.3,0 0,-0.1 -0.1,0.1 -0.1,0.1 l -0.2,-0.2 c -0.2,0 0.2,0.4 0.2,0.4 M 9.1,28.7 C 9.1,28.8 9,28.8 9,28.9 V 29 h 0.1 c 0.1,0 0.3,-0.1 0.4,-0.1 0.1,0 0.2,-0.1 0.4,-0.1 C 9.6,28.6 9.3,28.7 9.1,28.7 m 0.6,0.9 c 0.1,-0.1 0.1,-0.2 0.2,-0.3 -0.2,0 -0.3,-0.1 -0.4,0 -0.1,0.1 0.1,0.2 0.2,0.3 M 9.1,29.4 c -0.1,0 -0.3,0.1 -0.5,0.1 0.1,0 0.1,0.1 0.2,0.1 0.1,-0.1 0.3,-0.1 0.3,-0.2 0.1,0 0,0 0,0 m 1.1,-1.2 c -0.1,0.1 -0.2,0.1 -0.3,0.2 v 0.1 c 0.2,-0.1 0.3,-0.1 0.3,-0.3 m 0.9,1.2 -0.2,-0.1 -0.1,-0.1 c 0,0 -0.2,0 -0.1,-0.1 C 10.8,29 10.9,29 11,29 c 0.1,0 0.3,0.1 0.3,0.1 l 0.2,-0.1 -0.4,0.4 m -0.7,-1 c 0,0 0.1,0.1 0.3,-0.1 0.2,-0.2 0.1,-0.1 0.1,-0.2 0,-0.1 0.3,-0.2 0.1,-0.1 l -0.2,0.1 -0.3,0.3 m 2.7,-0.2 c 0,0 0.2,-0.5 0.1,-0.5 0,0 -0.2,0.3 -0.2,0.2 V 28 h -0.3 c -0.1,0.2 0.4,0.2 0.4,0.2 m 0.8,1.3 h -0.2 c 0,0 -0.1,0 -0.1,0.1 0,0 0.1,0 0.1,0.1 0.1,0.1 0.2,0.1 0.3,0.2 0.1,0.1 0.2,0.1 0.3,0.2 0.1,-0.3 -0.2,-0.4 -0.4,-0.6 m -0.2,1.1 h 0.4 c -0.1,-0.1 -0.2,-0.3 -0.3,-0.3 -0.2,-0.1 0,0.1 -0.1,0.3 M 13.5,30 c -0.1,-0.1 -0.2,-0.1 -0.4,-0.2 0,0.1 0,0.2 0.1,0.2 h 0.3 c 0,0.1 0,0 0,0 m 1.6,-0.1 c -0.1,0 -0.2,-0.1 -0.3,-0.1 v 0.1 c 0.1,0.1 0.2,0.2 0.3,0 m -0.2,1.5 -0.1,-0.3 v -0.2 c 0,0 -0.1,-0.2 0,-0.1 0.1,0 0.3,0.1 0.3,0.1 l 0.1,0.2 0.2,0.1 -0.5,0.2 M 15,30.2 c 0,0 0,0.2 0.2,0.2 0.2,0 0.1,0 0.2,-0.1 0.1,-0.1 0.3,0.1 0.1,0 L 15.3,30.2 H 15 m 2.2,1.7 c 0,0 0.5,-0.3 0.4,-0.3 -0.1,0 -0.3,0.1 -0.3,0 0,-0.1 -0.1,0.1 -0.1,0.1 L 17,31.5 c -0.2,0 0.2,0.4 0.2,0.4 M 9.9,26.5 9.6,26.2 C 9.6,26.1 9.5,26 9.5,26 h 0.8 c 0.2,0 0.4,0 0.6,0.1 -0.1,0.4 -0.6,0.4 -1,0.4 m 0.8,-1.9 0.5,0.5 c -0.3,0.1 -0.5,0.3 -0.6,0.2 -0.4,-0.3 0,-0.4 0.1,-0.7 m -0.9,0.6 c -0.2,0 -0.5,0 -0.8,-0.1 0.1,-0.1 0.2,-0.2 0.3,-0.2 0.2,0 0.4,0.1 0.6,0.2 -0.1,0 -0.1,0.1 -0.1,0.1 m 2.1,2.1 c -0.2,-0.1 -0.4,-0.2 -0.5,-0.2 0,0 0,-0.1 0.1,-0.1 0.1,-0.2 0.4,-0.3 0.4,0.3 M 13,24.4 12.6,24.7 12.5,25 c 0,0 -0.3,0.2 -0.1,0.2 0.2,0.1 0.4,0.1 0.5,0.1 0.1,0 0.4,-0.3 0.4,-0.3 l 0.4,0.1 -0.7,-0.7 m -0.9,2.2 c 0,0 0.2,-0.3 0.5,0 0.3,0.3 0.2,0.2 0.2,0.3 0,0.2 0.5,0.3 0.2,0.2 L 12.6,27 12.1,26.6"
         fill="#00b4b4"
         clip-path="url(#f-2)"
         transform="matrix(0.67660469,0,0,0.51141948,54.556789,21.497543)" />
      <path
         id="path1784"
         d="m 16.5,26.2 c 0,0 0.4,1 0.3,1 -0.1,-0.1 -0.4,-0.5 -0.4,-0.4 -0.1,0.1 0,-0.3 0,-0.3 0,0 -0.2,0.1 -0.4,0 -0.2,-0.1 0.5,-0.3 0.5,-0.3 m 6.4,4.2 c 0.1,0.1 0.2,0.1 0.2,0.2 0,0 0.1,0.1 0.1,0.2 H 23 c -0.2,0 -0.3,0 -0.5,0.1 h -0.4 c 0.1,-0.5 0.5,-0.5 0.8,-0.5 m -0.3,1.4 c -0.1,-0.1 -0.2,-0.2 -0.4,-0.3 0.2,-0.1 0.3,-0.3 0.4,-0.2 0.3,0.2 0,0.3 0,0.5 m 0.5,-0.5 h 0.6 c -0.1,0.1 -0.1,0.2 -0.2,0.2 H 23.1 V 31.3 M 21.4,30 c 0.2,0 0.3,0.1 0.4,0.1 v 0.1 c -0.2,0.1 -0.4,0.2 -0.4,-0.2 m -0.5,2.2 0.2,-0.3 0.1,-0.2 c 0,0 0.2,-0.2 0.1,-0.2 h -0.4 c -0.1,0 -0.2,0.3 -0.2,0.3 l -0.3,-0.1 0.5,0.5 m 0.4,-1.6 c 0,0 -0.1,0.3 -0.3,0.1 -0.3,-0.2 -0.2,-0.1 -0.2,-0.2 0,-0.1 -0.4,-0.1 -0.1,-0.1 H 21 l 0.3,0.2 m -3.1,0.8 c 0,0 -0.4,-0.7 -0.3,-0.6 0.1,0 0.3,0.3 0.4,0.2 v 0.2 c 0,0 0.1,-0.1 0.3,-0.1 0.1,0.1 -0.4,0.3 -0.4,0.3 m 11.5,-6.9 c 0.1,0.1 0.3,0.2 0.4,0.3 0.1,0.1 0.1,0.2 0.1,0.3 H 30 c -0.2,0 -0.5,0.1 -0.7,0.1 -0.2,0 -0.5,0 -0.7,0.1 0.1,-0.7 0.7,-0.7 1.1,-0.8 m -0.4,2.4 c -0.2,-0.2 -0.4,-0.3 -0.6,-0.4 0.3,-0.2 0.5,-0.4 0.7,-0.4 0.4,0.2 -0.1,0.4 -0.1,0.8 m 0.8,-1 c 0.3,0 0.5,0 0.9,-0.1 -0.1,0.2 -0.2,0.3 -0.3,0.3 -0.2,0 -0.5,0 -0.7,-0.1 0.1,0.1 0.1,0 0.1,-0.1 M 27.4,24 c 0.2,0.1 0.4,0.1 0.6,0.2 v 0.2 C 27.8,24.5 27.5,24.6 27.4,24 M 26.7,27.4 27,27 27.2,26.7 c 0,0 0.3,-0.3 0.1,-0.3 -0.2,-0.1 -0.5,-0.1 -0.6,-0.1 -0.1,0 -0.4,0.4 -0.4,0.4 l -0.4,-0.1 0.8,0.8 m 0.6,-2.6 c 0,0 -0.1,0.4 -0.5,0.1 -0.4,-0.3 -0.3,-0.2 -0.3,-0.3 -0.1,-0.2 -0.7,-0.2 -0.2,-0.2 h 0.4 l 0.6,0.4 m -4.9,1.4 c 0,0 -0.6,-1.1 -0.5,-1 0.1,0 0.5,0.5 0.6,0.4 V 26 c 0,0 0.2,-0.1 0.5,-0.1 l -0.6,0.3 M 21.8,12.6 c 0.1,0 0.1,0.1 0.2,0.1 0,0 0,0.1 0.1,0.1 h -0.7 c 0,-0.2 0.2,-0.2 0.4,-0.2 m -0.2,1 c -0.1,-0.1 -0.2,-0.1 -0.3,-0.2 0.1,-0.1 0.2,-0.2 0.3,-0.2 0.2,0.1 0,0.2 0,0.4 M 22,13.2 h 0.4 l -0.1,0.1 c -0.1,0 -0.2,-0.1 -0.3,-0.1 m -1.2,-0.9 c 0.1,0 0.2,0 0.3,0.1 v 0.1 c -0.2,0 -0.3,0.1 -0.3,-0.2 m -0.3,1.5 0.1,-0.2 0.1,-0.1 c 0,0 0.1,-0.1 0,-0.1 h -0.3 l -0.2,0.2 H 20 l 0.5,0.2 m 0.2,-1.1 c 0,0 -0.1,0.2 -0.2,0 -0.2,-0.1 -0.1,-0.1 -0.1,-0.1 0,-0.1 -0.3,-0.1 -0.1,-0.1 h 0.2 l 0.2,0.2 m -2.1,0.6 c 0,0 -0.3,-0.5 -0.2,-0.4 l 0.2,0.2 v 0.2 c 0,0 0.1,-0.1 0.2,0 0.2,-0.2 -0.2,0 -0.2,0 M 22,35.6 c 0.1,0 0.1,0.1 0.2,0.1 0,0 0,0.1 0.1,0.1 h -0.7 c 0,-0.2 0.2,-0.2 0.4,-0.2 m -0.2,1 c -0.1,-0.1 -0.2,-0.1 -0.3,-0.2 0.1,-0.1 0.2,-0.2 0.3,-0.2 0.2,0.1 0,0.2 0,0.4 m 0.4,-0.4 h 0.4 l -0.1,0.1 c -0.1,0 -0.2,0 -0.3,-0.1 0,0.1 0,0 0,0 M 21,35.4 c 0.1,0 0.2,0 0.3,0.1 v 0.1 c -0.1,0 -0.2,0 -0.3,-0.2 m -0.3,1.4 0.1,-0.2 0.1,-0.1 c 0,0 0.1,-0.1 0,-0.1 h -0.3 l -0.2,0.2 h -0.2 l 0.5,0.2 m 0.2,-1.1 c 0,0 -0.1,0.2 -0.2,0 -0.2,-0.1 -0.1,-0.1 -0.1,-0.1 0,-0.1 -0.3,-0.1 -0.1,-0.1 h 0.2 l 0.2,0.2 m -2,0.6 c 0,0 -0.3,-0.5 -0.2,-0.4 l 0.2,0.2 v 0.2 c 0,0 0.1,-0.1 0.2,-0.1 0.1,-0.1 -0.2,0.1 -0.2,0.1 m -0.3,-8.5 c 0,0.1 -0.1,0.1 -0.1,0.2 v 0.1 h 0.1 c 0.1,0 0.3,-0.1 0.4,-0.1 0.1,0 0.2,-0.1 0.4,-0.1 -0.3,-0.2 -0.6,-0.1 -0.8,-0.1 m 0.6,0.9 c 0.1,-0.1 0.1,-0.2 0.2,-0.3 -0.2,0 -0.3,-0.1 -0.4,0 -0.2,0.1 0.1,0.1 0.2,0.3 m -0.6,-0.2 c -0.1,0 -0.3,0.1 -0.5,0.1 0.1,0 0.1,0.1 0.2,0.1 0.1,-0.1 0.2,-0.1 0.3,-0.2 m 1.1,-1.3 c -0.1,0.1 -0.2,0.1 -0.3,0.2 v 0.1 c 0.2,0 0.3,0 0.3,-0.3 m 0.9,1.3 -0.2,-0.1 -0.1,-0.1 c 0,0 -0.2,0 -0.1,-0.1 0.1,-0.1 0.2,-0.1 0.3,-0.1 0.1,0 0.3,0.1 0.3,0.1 l 0.2,-0.1 -0.4,0.4 m -0.7,-1 c 0,0 0.1,0.1 0.3,-0.1 0.2,-0.2 0.1,-0.1 0.1,-0.2 0,-0.1 0.3,-0.2 0.1,-0.1 l -0.2,0.1 -0.3,0.3 m 2.7,-0.2 c 0,0 0.2,-0.5 0.1,-0.5 l -0.2,0.3 v 0.1 h -0.3 c -0.1,0 0.4,0.1 0.4,0.1 M 6,32.4 c 0,0.1 -0.1,0.1 -0.1,0.2 v 0.1 H 6 c 0.1,0 0.3,-0.1 0.4,-0.1 0.1,0 0.2,-0.1 0.4,-0.1 C 6.5,32.3 6.2,32.4 6,32.4 m 0.6,0.9 C 6.7,33.2 6.7,33.1 6.8,33 6.6,33 6.5,32.9 6.4,33 6.2,33.1 6.5,33.1 6.6,33.3 M 6,33 c -0.1,0 -0.3,0.1 -0.5,0.1 0.1,0 0.1,0.1 0.2,0.1 0.1,0 0.2,-0.1 0.3,-0.2 0,0.1 0,0 0,0 M 7.1,31.8 C 7,31.9 6.9,31.9 6.8,32 v 0.1 C 7,32 7.1,32.1 7.1,31.8 M 8,33 7.8,32.9 7.7,32.8 c 0,0 -0.2,0 -0.1,-0.1 0.1,-0.1 0.2,-0.1 0.3,-0.1 0.1,0 0.3,0.1 0.3,0.1 L 8.4,32.6 8,33 M 7.3,32.1 c 0,0 0.1,0.1 0.3,-0.1 0.2,-0.2 0.1,-0.1 0.1,-0.2 0,-0.1 0.3,-0.2 0.1,-0.1 L 7.6,31.8 7.3,32.1 M 10,31.8 c 0,0 0.2,-0.5 0.1,-0.5 l -0.2,0.3 v 0.1 H 9.6 c -0.1,0.1 0.4,0.1 0.4,0.1 m 0.8,1.4 h -0.2 c 0,0 -0.1,0 -0.1,0.1 0,0 0.1,0 0.1,0.1 0.1,0.1 0.2,0.1 0.3,0.2 0.1,0.1 0.2,0.1 0.3,0.2 0,-0.3 -0.2,-0.5 -0.4,-0.6 m -0.2,1 H 11 c -0.1,-0.1 -0.2,-0.3 -0.3,-0.3 -0.2,0 0,0.2 -0.1,0.3 m -0.2,-0.5 c -0.1,-0.1 -0.2,-0.1 -0.4,-0.2 0,0.1 0,0.2 0.1,0.2 h 0.3 M 12,33.5 c -0.1,0 -0.2,-0.1 -0.3,-0.1 v 0.1 c 0,0.1 0.1,0.2 0.3,0 m -0.2,1.6 -0.1,-0.3 v -0.2 c 0,0 -0.1,-0.2 0,-0.1 0.1,0 0.3,0.1 0.3,0.1 l 0.1,0.2 0.2,0.1 -0.5,0.2 m 0.1,-1.2 c 0,0 0,0.2 0.2,0.2 0.2,0 0.1,0 0.2,-0.1 0.1,-0.1 0.3,0.1 0.1,0 l -0.2,-0.1 h -0.3 m 2.2,1.6 c 0,0 0.5,-0.3 0.4,-0.3 -0.1,0 -0.3,0.1 -0.3,0 0,-0.1 -0.1,0.1 -0.1,0.1 l -0.2,-0.2 c -0.2,0.1 0.2,0.4 0.2,0.4 M 8.8,30.1 c -0.1,0.1 -0.3,0.1 -0.4,0.2 -0.1,0 -0.1,0.1 -0.1,0.1 0.1,0 0.2,0 0.3,-0.1 0.3,-0.1 0.6,-0.1 0.9,-0.2 0.3,-0.1 0.6,-0.1 0.8,-0.2 -0.3,0 -1,0.1 -1.5,0.2 m 4.3,-1 c 0.1,-0.1 0.1,-0.2 0.2,-0.3 -0.2,0 -0.3,-0.1 -0.4,0 -0.1,0.1 0.2,0.1 0.2,0.3 m -0.5,-0.3 c -0.1,0 -0.3,0.1 -0.5,0.1 0.1,0 0.1,0.1 0.2,0.1 0.1,0 0.2,-0.1 0.3,-0.2 0,0.1 0,0.1 0,0 m 1,-1.2 c -0.1,0.1 -0.2,0.1 -0.3,0.2 v 0.1 c 0.2,0 0.4,0 0.3,-0.3 m 1,3.7 -0.2,-0.1 -0.1,-0.1 c 0,0 -0.2,0 -0.1,-0.1 0.1,-0.1 0.2,-0.1 0.3,-0.1 0.1,0 0.3,0.1 0.3,0.1 l 0.2,-0.1 -0.4,0.4 m -0.8,-3.4 c 0,0 0.1,0.1 0.3,-0.1 0.2,-0.2 0.1,-0.1 0.1,-0.2 0,-0.1 0.3,-0.2 0.1,-0.1 l -0.2,0.1 -0.3,0.3 m 2.7,-0.3 c 0,0 0.2,-0.5 0.1,-0.5 0,0 -0.2,0.3 -0.2,0.2 v 0.1 h -0.3 c -0.1,0.2 0.4,0.2 0.4,0.2 M 12.3,17.5 12,17.2 C 12,17.1 11.9,17 11.9,17 h 0.8 c 0.2,0 0.4,0 0.6,0.1 -0.1,0.4 -0.6,0.3 -1,0.4 m 0.7,-6 0.5,0.5 c -0.3,0.1 -0.5,0.3 -0.6,0.2 -0.4,-0.3 0,-0.4 0.1,-0.7 m -0.8,4.7 c -0.2,0 -0.5,0 -0.8,-0.1 0.1,-0.1 0.2,-0.2 0.3,-0.2 0.2,0 0.4,0.1 0.6,0.2 -0.1,0 -0.1,0 -0.1,0.1 m 2,2 C 14,18.1 13.8,18 13.7,18 c 0,0 0,-0.1 0.1,-0.1 0.2,-0.1 0.4,-0.2 0.4,0.3 m 1.2,-2.8 -0.4,0.3 -0.2,0.2 c 0,0 -0.3,0.2 -0.1,0.2 0.2,0.1 0.4,0.1 0.5,0.1 0.1,0 0.4,-0.3 0.4,-0.3 L 16,16 15.4,15.4 m -0.9,2.2 c 0,0 0.2,-0.3 0.5,0 0.3,0.3 0.2,0.2 0.2,0.3 0,0.2 0.5,0.3 0.2,0.2 L 15,18 14.5,17.6 m 4.4,-0.4 c 0,0 0.4,1 0.3,1 -0.1,-0.1 -0.4,-0.5 -0.4,-0.4 -0.1,0.1 0,-0.3 0,-0.3 0,0 -0.2,0.1 -0.4,0 -0.3,-0.1 0.5,-0.3 0.5,-0.3 m -7.8,20.4 c 0,0.1 0,0.1 0.1,0.2 v 0.1 H 11.1 C 11,37.9 11,37.8 10.9,37.8 l -0.1,-0.1 c 0.1,-0.2 0.2,-0.1 0.3,-0.1 m -0.2,0.9 c 0,-0.1 -0.1,-0.2 -0.1,-0.3 0.1,0 0.1,-0.1 0.2,0 0,0.1 -0.1,0.1 -0.1,0.3 m 0.2,-0.2 c 0.1,0 0.1,0.1 0.2,0.1 l -0.1,0.1 c 0,-0.1 -0.1,-0.1 -0.1,-0.2 M 10.7,37 c 0,0.1 0.1,0.1 0.1,0.2 v 0.1 c -0.1,0 -0.1,0 -0.1,-0.3 m -0.4,1.3 0.1,-0.1 0.1,-0.1 c 0,0 0.1,0 0,-0.1 0,-0.1 -0.1,-0.1 -0.1,-0.1 l -0.1,0.1 -0.1,-0.1 0.1,0.4 m 0.3,-1 c 0,0 -0.1,0.1 -0.1,-0.1 -0.1,-0.2 0,-0.1 0,-0.2 0,-0.1 -0.1,-0.2 0,-0.1 l 0.1,0.1 v 0.3 M 9.5,37.1 c 0,0 -0.1,-0.5 0,-0.5 l 0.1,0.3 c 0,-0.1 0,0.1 -0.1,0.2 C 9.5,37 9.6,37 9.6,37 9.7,37 9.5,37.1 9.5,37.1 m -0.3,1.3 c 0,0 0.1,0 0,0 l 0.1,0.1 v 0.1 c 0,0.1 -0.1,0.1 -0.1,0.2 0,0.1 -0.1,0.1 -0.1,0.2 -0.1,-0.3 0,-0.4 0.1,-0.6 m 0.1,1 H 9.2 c 0,-0.1 0.1,-0.3 0.1,-0.3 v 0.3 m 0.1,-0.5 c 0,-0.1 0.1,-0.1 0.2,-0.2 v 0.2 H 9.4 M 8.7,38.7 8.8,38.6 v 0.1 c 0,0.1 0,0.3 -0.1,0 m 0.1,1.6 v -0.5 c 0,0 0.1,-0.2 0,-0.1 L 8.7,39.8 V 40 l -0.1,0.1 0.2,0.2 m 0,-1.2 c 0,0 0,0.2 -0.1,0.2 -0.1,0 -0.1,0 -0.1,-0.1 0,-0.1 -0.1,0.1 -0.1,0 L 8.6,39.1 H 8.8 M 7.9,40.8 7.7,40.5 c 0,0 0.1,0.1 0.1,0 v 0.1 c 0,0 0,-0.1 0.1,-0.2 0.1,0 0,0.4 0,0.4 M 22.4,18.1 c 0,0.1 -0.1,0.1 -0.1,0.2 v 0.1 h 0.1 c 0.1,0 0.3,-0.1 0.4,-0.1 0.1,0 0.2,-0.1 0.4,-0.1 C 23,18 22.7,18.1 22.4,18.1 m 0.6,0.8 c 0.1,-0.1 0.1,-0.2 0.2,-0.3 -0.2,0 -0.3,-0.1 -0.4,0 -0.1,0.2 0.2,0.2 0.2,0.3 m -0.5,-0.2 c -0.1,0 -0.3,0.1 -0.5,0.1 0.1,0 0.1,0.1 0.2,0.1 0.1,0 0.2,-0.1 0.3,-0.2 0,0.1 0,0 0,0 m 1,-1.2 c -0.1,0.1 -0.2,0.1 -0.3,0.2 v 0.1 c 0.2,-0.1 0.4,0 0.3,-0.3 m 1,1.2 -0.2,-0.1 -0.1,-0.1 c 0,0 -0.2,0 -0.1,-0.1 0.1,-0.1 0.2,-0.1 0.3,-0.1 0.1,0 0.3,0.1 0.3,0.1 l 0.2,-0.1 -0.4,0.4 m -0.8,-0.9 c 0,0 0.1,0.1 0.3,-0.1 0.2,-0.2 0.1,-0.1 0.1,-0.2 0,-0.1 0.3,-0.2 0.1,-0.1 l -0.2,0.1 -0.3,0.3 m 2.7,-0.3 c 0,0 0.2,-0.5 0.1,-0.5 l -0.2,0.3 v 0.1 H 26 c 0,0.1 0.4,0.1 0.4,0.1 m 0.8,1.4 H 27 c 0,0 -0.1,0 -0.1,0.1 0,0 0.1,0 0.1,0.1 0.1,0.1 0.2,0.1 0.3,0.2 0.1,0.1 0.2,0.1 0.3,0.2 0.1,-0.3 -0.2,-0.5 -0.4,-0.6 m -0.1,1 h 0.4 c -0.1,-0.1 -0.2,-0.3 -0.3,-0.3 -0.2,0 -0.1,0.2 -0.1,0.3 m -0.3,-0.5 c -0.1,-0.1 -0.2,-0.1 -0.4,-0.2 0,0.1 0,0.2 0.1,0.2 h 0.3 m 1.6,-0.2 c -0.1,0 -0.2,-0.1 -0.3,-0.1 v 0.1 c 0.1,0.1 0.2,0.2 0.3,0 m -0.1,1.6 -0.1,-0.3 v -0.2 c 0,0 -0.1,-0.2 0,-0.1 0.1,0 0.3,0.1 0.3,0.1 l 0.1,0.2 0.2,0.1 -0.5,0.2 m 0.1,-1.2 c 0,0 0,0.2 0.2,0.2 0.2,0 0.1,0 0.2,-0.1 0.1,-0.1 0.3,0.1 0.1,0 l -0.2,-0.1 h -0.3 m 2.1,1.6 c 0,0 0.5,-0.3 0.4,-0.3 -0.1,0 -0.3,0.1 -0.3,0 0,-0.1 -0.1,0.1 -0.1,0.1 l -0.2,-0.2 c -0.1,0.1 0.2,0.4 0.2,0.4 M 1.9,25 c 0,0.1 -0.1,0.1 -0.1,0.2 v 0.1 h 0.1 c 0.1,0 0.3,-0.1 0.4,-0.1 0.1,0 0.2,-0.1 0.4,-0.1 C 2.4,24.8 2.1,24.9 1.9,25 m 0.6,0.8 c 0.1,-0.1 0.1,-0.2 0.2,-0.3 -0.2,0 -0.3,-0.1 -0.4,0 -0.2,0.2 0.1,0.2 0.2,0.3 M 1.9,25.6 c -0.1,0 -0.3,0.1 -0.5,0.1 0.1,0 0.1,0.1 0.2,0.1 0.1,0 0.2,-0.1 0.3,-0.2 M 3,24.4 c -0.1,0.1 -0.2,0.1 -0.3,0.2 v 0.1 C 2.8,24.6 3,24.6 3,24.4 M 3.9,25.6 3.7,25.5 3.6,25.4 c 0,0 -0.2,0 -0.1,-0.1 0.1,-0.1 0.2,-0.1 0.3,-0.1 0.1,0 0.3,0.1 0.3,0.1 L 4.3,25.2 3.9,25.6 M 3.2,24.7 c 0,0 0.1,0.1 0.3,-0.1 0.2,-0.2 0.1,-0.1 0.1,-0.2 0,-0.1 0.3,-0.2 0.1,-0.1 l -0.2,0.1 -0.3,0.3 m 2.6,-0.3 0.1,-0.5 -0.2,0.3 c 0,-0.1 0.1,0.1 0.1,0.2 -0.1,-0.1 -0.2,-0.1 -0.3,-0.1 -0.1,0.1 0.3,0.1 0.3,0.1 m 0.9,1.3 H 6.5 c 0,0 -0.1,0 -0.1,0.1 0,0 0.1,0 0.1,0.1 C 6.6,26 6.7,26 6.8,26.1 6.9,26.2 7,26.2 7.1,26.3 7.1,26 6.9,25.9 6.7,25.7 M 6.5,26.8 H 6.9 C 6.8,26.7 6.7,26.5 6.6,26.5 6.4,26.4 6.6,26.6 6.5,26.8 M 6.3,26.2 C 6.1,26.2 6,26.1 5.8,26 c 0,0.1 0,0.2 0.1,0.2 0.1,0 0.2,0.1 0.4,0 -0.1,0.1 -0.1,0.1 0,0 M 7.9,26.1 C 7.7,26 7.6,26 7.5,26 v 0.1 c 0.1,0.1 0.2,0.2 0.4,0 M 7.7,27.6 7.6,27.3 v -0.2 c 0,0 -0.1,-0.2 0,-0.1 0.1,0 0.3,0.1 0.3,0.1 l 0.1,0.2 0.2,0.1 -0.5,0.2 m 0.1,-1.2 c 0,0 0,0.2 0.2,0.2 0.2,0 0.1,0 0.2,-0.1 0.1,-0.1 0.3,0.1 0.1,0 L 8.1,26.4 H 7.8 m 2.1,1.7 c 0,0 0.5,-0.3 0.4,-0.3 -0.1,0 -0.3,0.1 -0.3,0 V 28 L 9.8,27.8 c -0.2,0 0.1,0.3 0.1,0.3 m -8.6,6.6 c 0,0.1 -0.1,0.1 -0.1,0.2 V 35 h 0.1 c 0.1,0 0.3,-0.1 0.4,-0.1 0.1,0 0.2,-0.1 0.4,-0.1 C 1.8,34.6 1.5,34.6 1.3,34.7 m 0.6,0.8 C 2,35.4 2,35.4 2.1,35.2 c -0.2,0 -0.3,-0.1 -0.4,0 -0.2,0.2 0.1,0.2 0.2,0.3 M 1.3,35.3 c -0.1,0 -0.3,0.1 -0.5,0.1 0.1,0 0.1,0.1 0.2,0.1 0.1,0 0.2,-0.1 0.3,-0.2 m 1.1,-1.2 c -0.1,0.1 -0.2,0.1 -0.3,0.2 v 0.1 C 2.3,34.3 2.4,34.3 2.4,34.1 M 3.3,35.3 3.1,35.2 3,35.1 c 0,0 -0.2,0 -0.1,-0.1 0.1,-0.1 0.2,-0.1 0.3,-0.1 0.1,0 0.3,0.1 0.3,0.1 L 3.7,34.9 3.3,35.3 M 2.6,34.4 c 0,0 0.1,0.1 0.3,-0.1 C 3,34.1 3,34.2 3,34.1 3,34.1 3.3,34 3.1,34 l -0.2,0.1 -0.3,0.3 m 2.7,-0.3 c 0,0 0.2,-0.5 0.1,-0.5 0,0 -0.2,0.3 -0.2,0.2 v 0.1 H 4.9 c -0.1,0.2 0.4,0.2 0.4,0.2 m 0.8,1.4 H 5.9 c 0,0 -0.1,0 -0.1,0.1 0,0 0.1,0 0.1,0.1 0.1,0.1 0.2,0.1 0.3,0.2 0.1,0 0.2,0.1 0.3,0.1 0.1,-0.3 -0.2,-0.4 -0.4,-0.5 m -0.2,1 H 6.3 C 6.2,36.4 6.1,36.2 6,36.2 c -0.2,0 0,0.2 -0.1,0.3 M 5.7,35.9 C 5.6,35.8 5.5,35.8 5.3,35.7 c 0,0.1 0,0.2 0.1,0.2 0,0 0.1,0.1 0.3,0 0,0.1 0,0.1 0,0 M 7.3,35.8 C 7.2,35.8 7.1,35.7 7,35.7 v 0.1 c 0,0.1 0.1,0.2 0.3,0 M 7.1,37.3 7,37.1 v -0.2 c 0,0 -0.1,-0.2 0,-0.1 0.1,0 0.3,0.1 0.3,0.1 l 0.1,0.2 0.2,0.1 -0.5,0.1 m 0.1,-1.1 c 0,0 0,0.2 0.2,0.2 0.2,0 0.1,0 0.2,-0.1 0.1,-0.1 0.3,0.1 0.1,0 L 7.5,36.2 H 7.2 m 2.2,1.6 c 0,0 0.5,-0.3 0.4,-0.3 -0.1,0 -0.3,0.1 -0.3,0 0,-0.1 -0.1,0.1 -0.1,0.1 L 9.2,37.4 c -0.2,0.1 0.2,0.4 0.2,0.4 m 11,-19.6 -0.3,-0.3 C 20.1,17.8 20,17.7 20,17.7 h 0.8 c 0.2,0 0.4,0 0.6,0.1 -0.1,0.5 -0.6,0.4 -1,0.4 m 0.7,-1.9 0.5,0.5 c -0.3,0 -0.5,0.2 -0.6,0.2 -0.4,-0.3 0.1,-0.4 0.1,-0.7 m -0.8,0.6 c -0.2,0 -0.5,0 -0.8,-0.1 0.1,-0.1 0.2,-0.2 0.3,-0.2 0.2,0 0.4,0.1 0.6,0.2 -0.1,0 -0.1,0.1 -0.1,0.1"
         fill="#00b4b4"
         clip-path="url(#f-2)"
         transform="matrix(0.67660469,0,0,0.51141948,54.556789,21.497543)" />
    </g>
    <path
       transform="matrix(0.67660469,0,0,0.51141948,54.556789,21.497543)"
       clip-path="url(#f-2)"
       fill="#ffffff"
       d="m 51.6,31.5 c 0.1,0 0.2,0.1 0.3,0.1 h 1.5 c 0.1,0 0.1,0 0.2,0.1 v 0.2 c 0,0 0,0.1 -0.1,0.1 l -0.1,-0.1 h -0.1 c -0.1,0 -0.1,0 -0.2,0.1 -0.1,0.1 -0.2,0.1 -0.2,0.1 -0.1,0 -0.1,0 -0.2,-0.1 -0.1,0 -0.3,0 -0.4,0.1 v 0.8 c 0,0.1 0.1,0.1 0.1,0.2 v 0.3 c 0,0.2 0,0.3 0.1,0.4 0.1,0 0.1,0.1 0.1,0.2 v 0.3 c 0,0.1 0.1,0.2 0.2,0.2 l 0.3,-0.1 v 0.1 c 0,0.1 0,0.3 0.1,0.5 0.1,0.2 0.1,0.4 0.1,0.5 v 0.2 l 0.5,0.3 c -0.1,0 -0.2,0 -0.3,0.1 -0.1,0 -0.1,0.1 -0.2,0.2 0,0.1 0,0.1 0.1,0.2 0.1,0.1 0.1,0.1 0.1,0.2 v 0.1 h -0.1 c -0.1,0 -0.1,0.1 -0.1,0.1 0,0.1 0.2,0.3 0.5,0.3 0.3,0.1 0.4,0.2 0.4,0.4 v 0.2 c 0.1,0 0.1,0.1 0.2,0.1 h 0.4 c 0.1,0 0.1,-0.1 0.2,-0.1 v -0.2 -0.1 l -0.1,-0.1 c 0.1,0 0.1,-0.1 0.2,-0.1 v -0.5 -0.3 l 0.7,0.2 v 0.1 c 0,0.1 0,0.2 0.1,0.4 0,0.2 0.1,0.3 0.1,0.3 0,0.1 0,0.2 -0.1,0.2 -0.1,0 -0.2,0.1 -0.3,0.1 V 38 l 0.2,0.2 -0.2,0.2 c -0.1,0.1 -0.1,0.1 -0.1,0.2 0,0 0,0.1 0.1,0.1 0,0 0.1,0.1 0.1,0.2 0,0 0,0.1 -0.1,0.2 -0.1,0.1 -0.1,0.2 -0.1,0.3 0,0.1 0,0.2 0.1,0.2 -0.1,0 -0.2,0.1 -0.2,0.1 V 40 c 0,0.1 -0.1,0.3 -0.1,0.4 -0.1,0.1 -0.2,0.2 -0.3,0.2 v -0.1 c 0,0 0,-0.1 -0.1,-0.1 0,0 -0.1,0.1 -0.1,0.2 0,0.1 -0.1,0.2 -0.1,0.2 h -0.1 l -0.1,-0.1 v -0.2 -0.1 c 0,0 -0.1,0 -0.1,-0.1 h -0.2 c -0.1,0 -0.1,-0.1 -0.1,-0.1 v -0.1 h 0.2 c 0,0 0.1,0 0.2,-0.1 v -0.1 l -0.1,-0.1 h -0.1 c -0.1,0 -0.1,0 -0.1,-0.1 0,0 -0.1,-0.1 -0.1,-0.2 v -0.1 c 0,-0.1 0,-0.2 -0.1,-0.3 -0.1,-0.1 -0.1,-0.2 -0.1,-0.3 v -0.2 c -0.3,-0.1 -0.4,-0.4 -0.5,-0.9 -0.1,-0.5 -0.2,-0.8 -0.3,-0.9 0,0 0,-0.1 0.1,-0.1 v -0.1 -0.1 c 0,0 -0.1,0 -0.2,-0.1 -0.1,0 -0.2,0 -0.2,-0.1 0,-0.1 0,-0.2 0.2,-0.2 0.2,-0.1 0.2,-0.1 0.2,-0.2 0,0 0,-0.1 -0.1,-0.2 0,0 -0.1,0.1 -0.2,0.1 -0.1,0 -0.1,0 -0.2,-0.1 -0.1,0 -0.1,-0.1 -0.1,-0.1 0.1,-0.1 0.1,-0.1 0.1,-0.2 0,-0.1 0,-0.2 -0.1,-0.3 -0.1,-0.1 -0.1,-0.2 -0.1,-0.3 v -0.1 l 0.1,-0.1 c 0,-0.1 -0.1,-0.2 -0.2,-0.2 H 52 c 0,-0.1 0,-0.3 -0.1,-0.6 -0.1,-0.2 -0.1,-0.4 -0.1,-0.5 v -0.2 c -0.1,-0.1 -0.2,-0.2 -0.5,-0.2 -0.2,0 -0.4,-0.1 -0.4,-0.2 0,-0.1 0,-0.2 0.1,-0.3 0,0 -0.1,-0.1 -0.3,-0.1 -0.1,-0.1 -0.2,-0.1 -0.2,-0.2 V 32 c 0.1,0 0.2,-0.1 0.2,-0.1 h 0.8 c -0.1,-0.3 0,-0.3 0.1,-0.4 M 51.1,32 51,32.1 c 0,0.1 0,0.1 0.1,0.2 0.1,0 0.2,0 0.3,-0.1 0,-0.1 -0.1,-0.2 -0.3,-0.2 z m 0.8,1.3 c 0,0.1 -0.1,0.1 -0.1,0.2 0,0.1 0,0.1 0.1,0.2 0.1,0 0.2,0 0.3,-0.1 0,-0.1 0,-0.1 -0.1,-0.2 C 52,33.3 52,33.3 51.9,33.3 Z m 0.6,1.5 0.1,0.1 h 0.2 l 0.1,-0.1 v -0.1 c 0,-0.1 -0.1,-0.1 -0.1,-0.1 0,0 -0.1,0 -0.1,0.1 -0.2,0 -0.2,0.1 -0.2,0.1 z m 0.7,2.8 0.1,0.1 h 0.1 c 0.1,0 0.1,-0.1 0.1,-0.2 0,-0.1 0,-0.1 -0.1,-0.1 -0.1,0 -0.1,0 -0.1,0.1 -0.1,0 -0.1,0 -0.1,0.1 z m 1,0.5 v 0.2 c 0,0 0.1,0.1 0.2,0 v -0.1 c -0.1,-0.1 -0.1,-0.1 -0.2,-0.1 z m 3.1,-6.7 c 0.1,0 0.2,0 0.3,0.1 0.1,0.1 0.2,0.2 0.3,0.2 v 0.1 c 0,0.1 -0.1,0.2 -0.3,0.2 -0.2,0 -0.3,0.1 -0.4,0.1 C 57.1,32 57,32 56.9,32 h -0.6 c 0,0.1 0.1,0.2 0.3,0.2 0.2,0 0.3,0.1 0.4,0.1 -0.1,0 -0.1,0.1 -0.1,0.1 V 33 l -0.1,0.1 h -0.3 c -0.1,0 -0.1,0.1 -0.1,0.1 v 0.1 l 0.3,0.2 c -0.1,0 -0.1,0 -0.2,0.1 -0.1,0.1 -0.1,0.1 -0.1,0.2 v 0.1 c 0,0 -0.1,0.1 -0.1,0.2 v 0.7 h -0.2 c -0.1,0 -0.2,0.1 -0.3,0.1 0,0 0,0.1 0.1,0.2 0.1,0.1 0.1,0.1 0.1,0.2 0,0.1 0,0.1 -0.1,0.1 0,0.1 -0.1,0.1 -0.2,0.1 h -0.1 -0.1 c 0,-0.1 -0.1,-0.1 -0.2,-0.1 -0.1,0 -0.2,0 -0.2,0.1 L 55,36 c 0,-0.1 0,-0.2 0.2,-0.3 0.2,-0.1 0.3,-0.2 0.3,-0.2 0,-0.1 0,-0.1 -0.1,-0.2 0.1,-0.1 0.1,-0.2 0.1,-0.3 v -0.3 -0.2 -0.2 -0.2 c 0,-0.1 0.1,-0.3 0.3,-0.4 l 0.3,-0.3 c 0,0 0,-0.1 -0.1,-0.1 0,0 -0.2,-0.1 -0.3,-0.2 0,0 0.1,0 0.1,-0.1 0,-0.1 0.1,-0.1 0.1,-0.1 v -0.3 -0.3 c 0,-0.1 0,-0.2 0.1,-0.3 h -0.7 -0.1 c -0.2,0 -0.3,0 -0.5,-0.1 0,-0.1 0,-0.2 0.1,-0.2 h 0.4 l 0.2,-0.3 0.1,0.1 c 0.1,0.1 0.2,0.1 0.2,0.1 h 0.1 l 0.1,-0.1 0.1,-0.1 c 0,0 0.1,0 0.1,0.1 l 0.1,0.1 h 0.1 c 0.1,-0.1 0.1,-0.2 0.2,-0.2 0,0 0.1,0 0.2,0.1 0.1,0.1 0.2,0.1 0.2,0.1 0.3,-0.1 0.3,-0.1 0.4,-0.2 z m -2.6,6.8 z m 0.6,-1.5 v 0.2 h 0.1 c 0.1,0 0.1,0 0.2,-0.1 l -0.1,-0.1 z m 0.4,-2.7 -0.1,0.2 c 0.1,0.1 0.2,0.1 0.3,0.1 H 56 V 34.2 C 56,34.1 56,34.1 55.9,34.1 55.9,34 55.8,34 55.7,34 Z m 0.2,0.7 c -0.1,0 -0.2,0.1 -0.1,0.2 0.1,0.1 0.2,0.2 0.3,0.2 0.1,-0.1 0.1,-0.1 0.1,-0.2 V 34.8 C 56.1,34.7 56,34.7 55.9,34.7 Z m 6,-1.4 c 0,0 0.1,0.1 0.1,0.2 0.1,0.1 0.2,0.2 0.3,0.2 0.1,0 0.1,-0.1 0.1,-0.1 v -0.1 -0.1 c 0.3,0 0.5,0 0.7,0.1 0.2,0.1 0.3,0.2 0.5,0.4 0.1,-0.1 0.2,-0.1 0.2,-0.1 0.1,0 0.2,0 0.3,0.1 0.1,0.1 0.3,0.1 0.4,0.1 0,0.2 0.1,0.4 0.4,0.6 0.3,0.2 0.4,0.4 0.5,0.5 l 0.3,1.5 c -0.1,0.1 -0.1,0.1 -0.1,0.2 0,0 0,0.1 0.1,0.2 0,0.1 0.1,0.2 0.1,0.2 0,0.1 0,0.1 -0.1,0.2 v 0.3 c 0,0.2 0,0.4 -0.1,0.6 -0.1,0.2 -0.2,0.4 -0.4,0.6 -0.2,0 -0.4,0.2 -0.7,0.5 -0.3,0.3 -0.5,0.4 -0.7,0.4 -0.1,0 -0.1,-0.1 -0.2,-0.1 -0.1,0 -0.2,0.1 -0.2,0.2 l -0.2,0.2 c -0.1,0 -0.1,0 -0.1,-0.1 L 63,39.9 c -0.1,0 -0.1,-0.1 -0.1,0 l -0.2,0.3 c 0,-0.1 -0.1,-0.1 -0.1,-0.2 0,-0.1 -0.1,-0.1 -0.2,-0.1 -0.1,0 -0.1,0.1 -0.1,0.2 v 0.2 c -0.1,0 -0.2,-0.1 -0.3,-0.2 -0.1,-0.2 -0.2,-0.2 -0.3,-0.2 -0.1,0 -0.2,0 -0.3,0.1 0,-0.1 0.1,-0.2 0.1,-0.3 0,-0.1 0,-0.1 -0.1,-0.1 h -0.3 l 0.1,0.1 -0.1,0.1 V 39.7 39.6 L 61,39.7 C 60.9,39.6 60.9,39.5 60.8,39.4 60.7,39.3 60.6,39.2 60.5,39.2 H 60.4 V 39 h 0.1 c 0.1,0 0.2,0 0.2,-0.1 v -0.2 c 0,0 -0.1,-0.1 -0.2,-0.1 h -0.2 c 0,0 -0.1,-0.2 -0.2,-0.6 -0.1,-0.4 -0.2,-0.7 -0.3,-0.8 0.1,0 0.1,-0.1 0.1,-0.1 v -0.2 c 0,-0.1 0,-0.2 -0.1,-0.3 -0.1,-0.1 -0.1,-0.2 -0.1,-0.3 v -0.2 c -0.1,0 -0.1,-0.1 -0.1,-0.1 0,0 0,-0.1 0.1,-0.1 l 0.1,-0.1 0.1,-0.6 h 0.2 c 0.1,0 0.1,-0.1 0.2,-0.1 v -0.2 c 0,-0.1 0,-0.2 0.1,-0.4 0.1,-0.1 0.1,-0.2 0.2,-0.4 0.1,-0.1 0.3,-0.2 0.6,-0.2 0.3,-0.1 0.5,-0.2 0.6,-0.3 0,0 0.1,0 0.1,0.1 0.1,0.1 0.1,0.1 0.2,0.1 0,0 0.1,0 0.1,-0.1 -0.4,-0.2 -0.3,-0.3 -0.3,-0.4 m -2.3,2.2 c 0,0.1 0.1,0.1 0.2,0.1 h 0.1 v -0.2 c 0,-0.1 -0.1,-0.1 -0.2,-0.1 0,0 -0.1,0.1 -0.1,0.2 z m 0.4,1.7 c -0.1,0 -0.1,0 -0.1,0.1 v 0.1 H 60 l 0.1,-0.1 c 0.1,-0.1 0,-0.1 -0.1,-0.1 0.1,0 0.1,0 0,0 z m 0,-0.7 v 0.1 h 0.1 c 0,0 0,-0.1 -0.1,-0.1 z m 0.3,-2.4 -0.1,0.1 h 0.1 z m 2,0.1 c -0.1,0 -0.1,0.1 -0.1,0.2 v 0.3 c 0,0 -0.1,0.1 -0.2,0 -0.1,0 -0.1,0 -0.2,-0.1 -0.1,-0.1 -0.1,-0.1 0,-0.2 h -0.1 c 0,0.1 0,0.2 -0.1,0.2 -0.1,0.1 -0.2,0.1 -0.3,0.1 H 61.2 C 61.1,34.8 61,35 61,35.2 v 0.4 c 0,-0.1 -0.1,-0.1 -0.1,-0.2 0,-0.1 -0.1,-0.1 -0.2,-0.1 -0.1,0 -0.1,0.1 -0.1,0.2 0,0.1 0,0.2 0.1,0.3 -0.1,0.1 -0.1,0.2 -0.1,0.3 V 37 c 0,0.1 0.1,0.2 0.1,0.3 0.1,0.2 0.1,0.3 0.1,0.4 v 0.1 c 0,0.1 0,0.2 0.1,0.3 l 0.2,-0.2 c 0.1,0 0.2,0.1 0.2,0.1 v 0.4 c 0,0.1 0,0.2 0.1,0.3 h 0.2 c 0.1,0 0.1,-0.1 0.1,-0.1 0.2,0 0.2,0.1 0.2,0.3 v 0.2 c 0.1,0.1 0.1,0.1 0.3,0.1 h 0.1 v -0.3 c 0.1,0 0.3,-0.1 0.4,-0.1 h 0.6 c 0,-0.1 0.1,-0.1 0.2,-0.1 0.1,0 0.2,0.1 0.3,0.1 0.1,0 0.1,0 0.2,-0.1 v -0.1 c 0,-0.1 -0.1,-0.1 -0.2,-0.1 h -0.2 c -0.1,0 -0.1,0 -0.1,-0.1 0.2,-0.1 0.3,-0.1 0.5,-0.2 0.1,0 0.2,-0.1 0.3,-0.3 l 0.3,0.3 0.1,-0.1 c 0,-0.1 0,-0.2 -0.1,-0.2 l -0.2,-0.2 c 0,-0.1 0.1,-0.2 0.3,-0.2 v -0.2 -0.1 c 0,-0.1 0,-0.2 0.1,-0.3 0,-0.1 0.1,-0.2 0.2,-0.2 l -0.4,-0.2 c 0.1,0 0.1,0 0.1,-0.1 v -0.2 c 0,-0.1 0,-0.2 -0.1,-0.2 -0.1,0 -0.2,-0.1 -0.3,-0.1 0,-0.1 -0.1,-0.2 -0.3,-0.4 -0.1,-0.2 -0.2,-0.3 -0.2,-0.4 v -0.2 h -0.6 c 0,-0.1 -0.2,-0.2 -0.3,-0.2 -0.2,0 -0.3,-0.1 -0.2,-0.3 -0.2,-0.2 -0.3,-0.3 -0.4,-0.2 z m -1.8,0.6 0.1,0.1 0.1,-0.1 c -0.1,0 -0.1,-0.1 -0.1,-0.1 z m 0.6,3.9 C 61,38.8 61,38.9 61,38.9 H 60.9 V 39 c 0,0 0,0.1 0.1,0.1 L 61.3,39 v -0.1 z m 1.3,0.3 0.1,0.1 h 0.1 c 0,0 0.1,0 0.1,-0.1 v -0.1 c 0,-0.1 -0.1,-0.1 -0.1,-0.1 -0.2,0 -0.2,0.1 -0.2,0.2 z m 0.4,-5.5 z m 0.3,5.4 v 0.2 h 0.2 V 39 c 0,-0.1 -0.1,-0.1 -0.2,-0.1 0.1,0 0.1,0 0,0 z m 0.7,0.1 v 0.2 h 0.1 V 39.1 39 h -0.1 c 0.1,0 0,0 0,0 z M 64,34.8 c 0,0 0.1,0.1 0.2,0.1 h 0.1 c 0.1,0 0.1,-0.1 0,-0.1 H 64.2 C 64.1,34.7 64,34.7 64,34.8 Z m 0.2,-0.6 c 0.1,0 0.2,-0.1 0.2,-0.2 0,0 0,-0.1 -0.1,-0.1 H 64.1 L 64,34 c 0.1,0.2 0.2,0.2 0.2,0.2 z m 0.7,2.5 c 0.1,0 0.1,0 0,0 l 0.1,0.1 0.1,-0.1 c 0,0 0.1,-0.1 0,-0.1 L 65,36.5 c 0,0.1 0,0.1 -0.1,0.2 z m 2.9,3.4 c -0.1,-0.1 0,-0.2 0,-0.2 h 1.1 c 0.1,0 0.2,-0.1 0.3,-0.1 v -0.1 -0.1 c 0,-0.1 0,-0.2 0.1,-0.2 l 0.1,0.1 v 0.2 c 0,0.1 0,0.1 0.1,0.2 h 0.3 c 0.1,0 0.1,-0.1 0.1,-0.2 0.1,0.2 0.2,0.3 0.2,0.3 0.1,0 0.1,0 0.2,-0.1 0.1,0 0.1,-0.1 0.1,-0.2 l -0.1,-0.1 v -0.1 c 0,-0.1 0.1,-0.2 0.2,-0.4 0.1,-0.2 0.2,-0.3 0.2,-0.4 v -0.2 c 0,-0.1 0,-0.2 -0.1,-0.3 v -0.4 -0.1 c 0,-0.1 -0.1,-0.1 -0.1,-0.2 v -0.3 c 0,-0.1 0,-0.3 -0.1,-0.3 h 0.1 c 0.1,0.1 0.2,0.2 0.3,0.1 0.1,0 0.1,-0.1 0.1,-0.3 -0.1,-0.1 -0.1,-0.1 -0.2,-0.1 h -0.4 c 0.1,0 0.1,-0.1 0.1,-0.1 v -0.1 c 0,-0.1 0,-0.1 -0.1,-0.3 -0.1,-0.1 -0.1,-0.2 -0.1,-0.3 0,-0.1 0,-0.2 0.1,-0.2 v -0.1 c 0,0 0,-0.1 0.1,-0.2 0,-0.1 0.1,-0.2 0.1,-0.3 0,-0.1 -0.1,-0.2 -0.2,-0.3 0,-0.2 0,-0.3 -0.2,-0.4 0.1,0 0.1,0 0.2,-0.1 0.1,0 0.1,-0.1 0.1,-0.2 0,-0.1 0,-0.2 -0.1,-0.3 0,-0.1 -0.1,-0.2 -0.2,-0.3 h -0.2 c -0.1,0 -0.1,0.1 -0.1,0.1 v 0.3 c 0,0 -0.1,-0.1 -0.1,-0.2 v -0.1 -0.1 c 0,0 -0.1,-0.1 -0.2,-0.1 h -0.8 c -0.3,0 -0.6,0 -0.8,-0.1 -0.2,-0.1 -0.3,-0.2 -0.4,-0.5 -0.1,0 -0.1,0 -0.2,-0.1 -0.1,0 -0.1,-0.1 -0.1,-0.2 0,-0.1 0.1,-0.2 0.2,-0.2 0.1,0 0.3,0 0.4,-0.1 0,0 0.1,0 0.2,0.1 0.1,0 0.2,0.1 0.2,0.1 0.1,0 0.2,-0.1 0.3,-0.2 0.1,0 0.2,0 0.5,0.1 0.2,0.1 0.4,0.1 0.5,0.1 0.1,0 0.2,0 0.3,-0.1 0.2,0.1 0.4,0.2 0.7,0.2 h 0.6 v 0.2 c 0,0.1 0,0.3 0.1,0.5 0,0.2 0.1,0.4 0.1,0.5 0,0.1 0,0.3 -0.1,0.4 0,0 0,0.1 0.1,0.1 v 0.2 -0.3 0.2 c 0,0.1 0.1,0.1 0.2,0.1 0,0 -0.1,0.1 -0.2,0.3 -0.1,0.2 -0.2,0.3 -0.2,0.3 0,0.1 0,0.1 0.1,0.2 v 0.4 l 0.3,0.2 c -0.1,0 -0.1,0 -0.2,0.1 -0.1,0.1 -0.1,0.1 -0.1,0.2 v 0.7 c 0,0.1 0.1,0.1 0.2,0.2 -0.1,0.1 -0.1,0.2 -0.1,0.3 0,0.1 0,0.2 0.1,0.3 0.1,0.1 0.1,0.2 0.1,0.3 V 38 l 0.1,0.1 0.1,0.1 c 0,0 -0.1,0 -0.3,0.1 -0.1,0 -0.2,0.1 -0.3,0.2 0,0.1 0.1,0.3 0.3,0.4 0.2,0.2 0.3,0.3 0.3,0.4 v 0.1 c 0,0.1 0.1,0.2 0.2,0.2 h 0.2 c 0.1,0 0.1,0.1 0.1,0.2 0.1,0.1 0.2,0.1 0.3,0.1 0.1,0 0.2,0 0.3,-0.1 0.2,0.1 0.4,0.1 0.7,0.1 h 0.1 l 0.4,0.2 -0.2,0.2 c -0.1,0.1 -0.2,0.2 -0.2,0.3 0,0.1 0.1,0.1 0.2,0.1 0.1,0 0.2,0 0.2,0.1 -0.1,0.1 -0.2,0.1 -0.3,0.1 h -0.4 c -0.1,0 -0.2,0 -0.3,0.1 H 72.2 72 c -0.1,0 -0.1,-0.1 -0.2,-0.1 h -3.3 c 0,0 -0.1,-0.1 -0.2,-0.1 -0.1,-0.1 -0.2,-0.1 -0.2,-0.1 -0.1,0 -0.1,-0.1 -0.2,-0.2 0,-0.2 0,-0.3 -0.1,-0.4 m 0.2,0.2 c 0.1,0.1 0.1,0.1 0.2,0.1 0,0 0.1,0 0.1,-0.1 v -0.1 c 0,-0.1 -0.1,-0.1 -0.1,-0.1 -0.2,0 -0.3,0 -0.2,0.2 -0.1,-0.1 -0.1,-0.1 0,0 z m 0.1,-7.9 v 0.1 c 0,0.1 0,0.1 0.1,0.2 h 0.2 v -0.1 -0.1 l -0.1,-0.1 c -0.2,-0.1 -0.2,-0.1 -0.2,0 z m 2,-0.1 H 70 l -0.1,0.1 v 0.1 c 0,0 0,0.1 0.1,0.1 h 0.1 l 0.2,0.1 -0.1,-0.1 v -0.1 c 0,-0.1 0,-0.2 -0.1,-0.2 z m 0.3,7.7 z m 0.1,-4.5 h 0.1 v -0.1 c 0,0 -0.1,-0.1 -0.1,0 z m 0.1,-0.6 h 0.1 v -0.2 h -0.1 z m 0,-1.4 v 0.2 c 0.1,0 0.2,-0.1 0.2,-0.1 v -0.1 z m 0.1,6.1 v 0.1 h 0.1 v -0.1 z m 0.1,-1.1 0.1,0.1 0.1,-0.1 z m 0.5,1.3 c 0.1,0 0.2,0 0.2,-0.2 0,-0.1 0,-0.1 -0.1,-0.2 h -0.2 c -0.1,0 -0.1,0.1 -0.1,0.2 0.1,0.1 0.1,0.2 0.2,0.2 z m -0.1,-0.7 0.2,-0.2 c 0,0 0.1,-0.1 0.2,0 v 0.2 c 0,0.1 0,0.2 -0.1,0.2 h -0.1 c -0.2,-0.1 -0.2,-0.1 -0.2,-0.2 z m 1.4,1.3 v 0.2 c 0,0 0.1,0 0.1,-0.1 v -0.1 h -0.1 c 0.1,0 0.1,0 0,0 z m 3.2,-6.5 h 0.3 c 0.1,0 0.3,0 0.5,-0.1 0.2,0 0.4,-0.1 0.4,-0.1 h 0.3 c 0.1,0 0.1,0.1 0.2,0.1 -0.1,0 -0.1,0 -0.1,0.1 v 0.2 c 0,0 0,0.1 0.1,0.1 h 0.3 l 0.1,-0.1 H 78 c -0.1,0.2 -0.1,0.3 -0.1,0.5 0,0.1 0,0.2 0.1,0.4 -0.1,0 -0.3,0.1 -0.4,0.1 -0.1,0 -0.2,0.1 -0.2,0.2 0.1,0.1 0.1,0.2 0.1,0.3 v 0.6 c 0,0.1 0.1,0.1 0.1,0.2 0,0 -0.1,0.1 -0.1,0.2 -0.1,0.1 -0.1,0.1 -0.1,0.2 v 0.1 c 0,0.1 0.1,0.1 0.2,0.1 0.1,0 0.1,0.1 0.1,0.2 -0.2,0 -0.2,0.1 -0.3,0.1 l -0.1,0.1 c 0,0.2 0.2,0.4 0.4,0.5 -0.1,0.1 -0.1,0.1 -0.1,0.2 v 0.2 c 0,0.1 0.1,0.1 0.1,0.2 h -0.2 c -0.1,0 -0.1,0.1 -0.2,0.2 l 0.3,0.3 c 0.2,0.1 0.3,0.1 0.5,0.1 0,0 0,0.1 -0.1,0.1 0,0 -0.1,0.1 0,0.1 0.1,0.1 0.1,0.1 0.2,0.1 0,0 0.1,0 0.1,-0.1 0,0 0.1,-0.1 0.1,-0.2 0.1,0 0.1,0.1 0.1,0.2 v 0.9 c 0,0.1 0.1,0.1 0.3,0.1 0.1,0 0.2,-0.1 0.2,-0.2 v -0.2 -0.2 c 0,0 0,-0.1 0.1,-0.1 h 0.2 c 0.1,0 0.2,0.1 0.2,0.1 0,0 0.2,0 0.2,-0.1 0,-0.1 0.1,-0.1 0.1,-0.2 v -0.3 h 0.1 v 0.3 c 0,0.1 0.1,0.1 0.2,0.2 0.1,-0.1 0.2,-0.3 0.2,-0.6 0,-0.3 0.1,-0.5 0.1,-0.6 0.1,0 0.3,-0.1 0.4,-0.1 0.1,0 0.2,-0.1 0.2,-0.2 0.1,-0.3 0.1,-0.6 0.1,-1 0,-0.2 0,-0.5 -0.1,-0.9 0,-0.4 -0.1,-0.7 -0.1,-0.9 -0.2,0 -0.3,-0.1 -0.6,-0.3 -0.2,-0.2 -0.4,-0.3 -0.5,-0.4 0,0 0,-0.1 -0.1,-0.1 0,-0.1 -0.1,-0.1 0,-0.2 0.1,0 0.1,0.1 0.2,0.1 h 0.3 c 0.1,0 0.1,-0.1 0.1,-0.2 0,-0.1 0.1,-0.2 0.2,-0.2 l 0.1,0.1 c 0,0.1 0,0.1 0.1,0.1 0.1,0 0.2,0 0.3,-0.1 0.1,0 0.2,-0.1 0.2,-0.1 0.1,0 0.1,0 0.2,0.1 0.1,0 0.2,-0.1 0.2,-0.2 0.1,-0.1 0.1,-0.2 0.2,-0.2 0.1,0 0.1,0 0.2,0.1 0,0 0,0.1 -0.1,0.2 l -0.1,0.1 c 0,0 0,0.1 0.1,0.1 0,0.1 0.1,0.1 0.2,0.1 0.1,0 0.1,0.1 0.2,0.1 l -0.2,0.2 0.2,0.2 c 0.1,0.1 0.2,0.1 0.2,0.2 h -0.3 c -0.1,0 -0.2,0.1 -0.2,0.2 0,0.2 0.1,0.3 0.3,0.3 0.2,0 0.3,0.1 0.3,0.2 h -0.1 c -0.3,0 -0.4,0.1 -0.4,0.3 v 0.4 c 0,0.1 0,0.2 -0.1,0.4 l 0.2,0.2 h 0.2 l -0.2,0.2 c -0.1,0.1 -0.2,0.1 -0.2,0.2 0.1,0.1 0.1,0.1 0.1,0.2 0,0.1 0,0.1 -0.1,0.3 -0.1,0.1 -0.1,0.2 -0.1,0.2 v 0.1 c 0,0 0.1,0.1 0.2,0.1 h 0.3 c 0.1,0 0.1,0 0.1,0.1 v 0.4 c 0,0.1 0.1,0.1 0.2,0.1 h -0.1 v 0.5 c 0,0.1 0.1,0.1 0.1,0.1 h 0.1 c 0.1,0 0.1,0 0.2,-0.1 v -0.2 c 0,0.1 0.1,0.2 0.3,0.3 0.2,0.1 0.3,0.2 0.3,0.3 v 0.1 l -0.2,-0.2 c -0.1,0 -0.1,0.2 -0.2,0.3 0,0.2 -0.1,0.2 -0.3,0.2 L 82,40.3 V 40 c 0,-0.1 -0.1,-0.1 -0.2,-0.2 -0.1,0 -0.1,0.1 -0.2,0.1 L 81.5,40 c 0,0.1 0,0.2 0.1,0.2 H 81.3 C 81.1,40.1 81,40 81.1,39.9 v -0.1 c 0,0 -0.1,0 -0.1,-0.1 -0.1,0.1 -0.1,0.1 -0.2,0.1 -0.1,0 -0.1,-0.1 -0.3,-0.2 l -0.2,-0.2 c -0.1,0 -0.1,0.1 -0.2,0.3 0.1,0.3 0,0.3 0,0.3 v -0.1 c 0,-0.1 0,-0.2 -0.1,-0.2 -0.1,0 -0.2,0 -0.2,0.1 -0.1,0.1 -0.1,0.1 -0.1,0.2 0,0.2 -0.1,0.3 -0.4,0.3 -0.3,0 -0.4,0.1 -0.5,0.1 -0.1,-0.1 -0.1,-0.1 -0.2,-0.1 0,0 -0.1,0 -0.2,0.1 -0.1,0 -0.2,0.1 -0.2,0.1 -0.1,0 -0.1,0 -0.2,-0.1 0,-0.1 0.1,-0.2 0.1,-0.2 V 40 39.8 L 78,39.7 h -0.1 l -0.3,0.4 c 0,-0.1 0,-0.1 -0.1,-0.2 0,-0.1 -0.1,-0.1 -0.1,-0.1 H 77 l -0.1,-0.1 v -0.2 c 0,-0.1 0,-0.1 -0.1,-0.3 0,-0.1 -0.1,-0.2 -0.1,-0.2 0,-0.1 0.1,-0.2 0.2,-0.2 0,-0.1 -0.1,-0.2 -0.1,-0.2 0,0 -0.1,-0.1 -0.2,-0.1 H 76.4 V 38.2 38 37.8 c 0.2,0 0.4,0 0.5,-0.2 v -0.2 c 0,-0.1 0,-0.1 -0.1,-0.2 h -0.2 c -0.1,0 -0.1,0.1 -0.2,0.3 v -1.3 l 0.2,0.2 h 0.2 C 76.9,36.3 77,36.2 77,36.1 77,36 77,36 76.9,35.9 c 0,-0.1 -0.1,-0.1 -0.2,-0.1 h -0.1 c 0,0 -0.1,0.1 -0.2,0.1 0,-0.1 -0.1,-0.2 -0.1,-0.3 v -0.4 -0.3 c 0,-0.2 -0.1,-0.3 -0.2,-0.4 -0.1,0 -0.3,0 -0.4,0.1 -0.1,0 -0.2,-0.1 -0.3,-0.2 0,0 0,-0.1 0.1,-0.2 0.3,0 0.3,-0.1 0.3,-0.3 m 0.5,0.3 v -0.1 z m 0.2,3.9 0.1,0.1 c 0,0 0.1,0.1 0.2,0 0.1,-0.1 0.1,-0.1 0.1,-0.2 v -0.1 h -0.1 c -0.2,0 -0.3,0.1 -0.3,0.2 z m 0.1,-1.5 V 37 h 0.3 c 0.1,0 0.1,-0.1 0.1,-0.1 -0.1,-0.1 -0.1,-0.1 -0.1,-0.2 -0.1,-0.1 -0.1,-0.2 -0.3,-0.1 0.1,-0.1 0,-0.1 0,0 z m 0.7,-1.8 c 0,0.1 0,0.1 0.1,0.2 h 0.1 c 0.1,0 0.1,-0.1 0.1,-0.2 0,-0.1 -0.1,-0.1 -0.1,-0.1 -0.1,0 -0.2,0 -0.2,0.1 z m 0.4,-0.9 z m 1.4,6.1 c 0,0.1 0,0.2 0.2,0.2 0,0 0.1,0 0.1,-0.1 0,0 0.1,-0.1 0.1,-0.2 0,0 0,-0.1 -0.1,-0.1 h -0.1 c -0.1,0 -0.2,0.1 -0.2,0.2 z M 81,37.5 c 0,0.1 0.1,0.1 0.1,0.1 h 0.2 l 0.1,-0.1 c 0,0 0.1,-0.1 0,-0.1 0,-0.1 -0.1,-0.2 -0.2,-0.2 -0.1,0 -0.1,0 -0.2,0.1 z m 0,-2.8 0.2,0.2 c 0.1,0 0.1,0.1 0.2,0.1 0,0 0.1,-0.1 0.1,-0.2 0,-0.1 0,-0.1 -0.1,-0.2 -0.1,-0.1 -0.2,-0.1 -0.2,-0.1 -0.1,0 -0.2,0.1 -0.2,0.2 z m 0.1,0.8 c 0,0 0.1,0 0.1,0.1 l 0.1,0.1 c 0,-0.1 0.1,-0.1 0.1,-0.2 0,0 0,-0.1 -0.1,-0.1 -0.1,0 -0.2,0 -0.2,0.1 0,-0.1 0,-0.1 0,0 z m 0,0.8 0.4,0.1 V 36.3 36.2 36.1 C 81.5,36 81.4,36 81.4,36 c -0.1,0 -0.1,0 -0.1,0.1 -0.2,0 -0.2,0.1 -0.2,0.2 z m 0.7,2.1 -0.1,0.3 0.1,0.1 0.1,0.1 H 82 c 0.1,0 0.1,-0.1 0.1,-0.2 V 38.6 C 82,38.5 81.9,38.4 81.8,38.4 Z m 7,-4.6 c 0.1,0 0.1,0.1 0.1,0.1 v 0.2 l 0.2,0.2 h 0.2 c 0,-0.1 0.1,-0.1 0.2,-0.2 0,0.1 0.2,0.2 0.4,0.2 0.2,0 0.4,0.1 0.4,0.2 0.1,0.1 0.1,0.2 0.1,0.3 v 0.6 c 0,0.1 0,0.2 0.1,0.2 0.1,0 0.2,0.1 0.3,0.1 v 0.2 c 0,0.1 0,0.2 -0.1,0.2 H 90.6 V 36 c 0,-0.1 -0.1,-0.2 -0.2,-0.3 0,0 -0.1,0 -0.1,0.1 l -0.1,0.1 c 0,0.1 0,0.1 0.1,0.2 l 0.1,0.1 c 0,0 0,0.1 -0.1,0.2 -0.1,0.1 -0.1,0.2 -0.1,0.2 v 0.1 h 0.2 l 0.1,-0.1 0.1,-0.1 v -0.1 c 0,0.2 0,0.5 0.1,1 0.1,0.5 0.1,0.8 0.1,1 v 0.5 c 0,0 0.1,0.1 0.2,0.1 h 0.4 c 0.1,0 0.2,0 0.3,0.1 0.1,0 0.1,0.1 0.1,0.2 l -0.3,0.3 c -0.1,0.1 -0.1,0.3 -0.1,0.4 h -0.1 c -0.1,0 -0.1,0 -0.3,-0.1 -0.1,-0.1 -0.2,-0.1 -0.2,-0.1 -0.1,0 -0.2,0 -0.2,0.1 h -0.1 -0.6 l -0.1,-0.1 c -0.2,0.1 -0.5,0.1 -0.8,0.1 h -0.3 c 0,0 0,-0.1 -0.1,-0.3 0,-0.2 -0.1,-0.3 -0.2,-0.4 0,-0.1 0.1,-0.1 0.2,-0.2 H 89 c 0.1,0 0.2,0 0.3,-0.1 0,-0.1 0.1,-0.2 0.1,-0.3 0,0 0.1,-0.1 0.3,-0.1 0.2,0 0.3,-0.1 0.3,-0.2 0,-0.1 0,-0.2 -0.1,-0.2 C 89.8,38 89.7,38 89.6,38 c 0.1,0 0.2,-0.1 0.2,-0.3 v -0.2 c 0,0 0,-0.1 -0.1,-0.2 h -0.1 c 0.1,-0.1 0.2,-0.2 0.2,-0.3 0,-0.1 0.1,-0.3 0.1,-0.4 V 36.4 36.2 L 89.8,36.1 C 89.7,36.1 89.7,36 89.6,36 v -0.2 c 0,-0.1 0.1,-0.1 0.1,-0.2 0,-0.1 -0.1,-0.1 -0.2,-0.1 l -0.1,-0.1 c 0,0 0.1,-0.1 0.2,-0.1 0.1,0 0.2,-0.1 0.2,-0.1 0,-0.2 -0.1,-0.3 -0.3,-0.3 -0.2,-0.1 -0.3,-0.1 -0.4,-0.2 h -0.3 c -0.1,0 -0.1,-0.1 -0.1,-0.1 v -0.2 -0.2 c 0,-0.1 0,-0.2 -0.1,-0.2 v -0.1 -0.1 c 0,-0.1 0,-0.2 -0.1,-0.3 -0.1,0 -0.2,0.1 -0.3,0.2 v 0.4 c 0,0.1 0,0.1 -0.1,0.2 H 88 87.6 87.5 l -0.1,0.1 v 0.2 c 0,0.1 0,0.1 0.1,0.2 0,0.1 0,0.1 -0.1,0.1 h -0.2 c -0.1,0 -0.2,0 -0.3,0.1 v 0.3 c 0,0.1 -0.1,0.1 -0.1,0.2 h -0.2 c -0.1,0 -0.2,0 -0.3,0.1 0,0.1 -0.1,0.2 -0.1,0.3 v 0.7 l 0.1,1.8 c 0,0.1 0.1,0.2 0.3,0.2 0.2,0.1 0.3,0.2 0.3,0.3 l 0.2,0.2 c 0.1,0 0.1,0.1 0.1,0.1 0,0.1 -0.1,0.2 -0.2,0.4 l -0.3,0.3 v -0.2 c 0,-0.1 -0.1,-0.1 -0.2,-0.1 L 86.1,39.9 86,39.8 H 85.8 L 85.6,40 h -1.2 c -0.2,0 -0.3,0 -0.4,-0.1 -0.1,0 -0.2,-0.1 -0.3,-0.3 -0.1,0 -0.1,-0.1 -0.1,-0.2 v -0.1 c 0.2,0 0.3,-0.1 0.5,-0.4 0.2,-0.2 0.3,-0.3 0.5,-0.3 0,-0.1 0.1,-0.1 0.1,-0.1 h 0.4 c 0.1,0 0.2,-0.1 0.2,-0.2 0,-0.1 -0.1,-0.1 -0.3,-0.1 -0.2,0 -0.3,-0.1 -0.3,-0.1 V 38 h 0.4 c 0.1,0 0.1,-0.1 0.1,-0.2 -0.1,-0.1 -0.1,-0.1 -0.1,-0.2 V 37.3 37.1 C 85.1,37 85,36.9 84.9,36.9 h -0.2 c 0,-0.1 0.1,-0.1 0.2,-0.2 0.2,-0.1 0.3,-0.2 0.3,-0.2 0,0 0,-0.1 -0.1,-0.2 L 85,36.2 c 0.1,0 0.1,-0.1 0.1,-0.2 v -0.2 c 0,-0.1 -0.2,-0.1 -0.3,-0.2 -0.2,0 -0.3,-0.1 -0.3,-0.2 v -0.1 c 0,-0.1 -0.1,-0.1 -0.1,-0.2 v -0.2 c 0,-0.1 0,-0.2 0.1,-0.3 -0.1,-0.1 -0.1,-0.1 -0.2,-0.1 h -0.1 v 0.2 C 84.1,34.6 84,34.5 84,34.4 c -0.1,-0.1 -0.2,-0.1 -0.3,-0.1 0,-0.1 -0.1,-0.1 -0.1,-0.2 0,-0.1 0.1,-0.1 0.2,-0.2 0.2,-0.1 0.3,-0.2 0.3,-0.2 0.3,-0.1 0.6,-0.2 0.9,-0.2 h 0.4 c 0.1,0.1 0.1,0.2 0.2,0.3 0,0.1 0.1,0.1 0.2,0.2 h 0.1 c 0.1,0 0.2,0 0.3,0.1 0.1,0.1 0.2,0.1 0.3,0.1 l 0.3,-0.4 V 34 c 0,0 0.1,0.1 0.2,0.1 0.1,0 0.2,0 0.3,-0.2 0,-0.1 0.1,-0.3 0.1,-0.4 0.1,0 0.2,-0.1 0.2,-0.1 h 1.1 c 0,0.5 0,0.4 0.1,0.4 m -5.1,6.1 h 0.1 v -0.1 c 0.1,0 0,0 -0.1,0.1 z m 0.4,-0.3 v 0.1 h 0.1 v -0.1 z m 0.3,-0.4 c -0.1,0 -0.1,0.1 -0.1,0.1 0,0.1 0,0.1 0.1,0.1 h 0.1 c 0.1,0 0.1,-0.1 0.1,-0.2 0,0 0,-0.1 -0.1,-0.1 0,0.1 -0.1,0.1 -0.1,0.1 z m -0.1,-4.9 h 0.1 v -0.1 h -0.1 z m 0.6,1.2 v 0.1 c 0.1,0.1 0.1,0.1 0.2,0.1 h 0.1 v -0.2 c 0,-0.1 -0.1,-0.1 -0.1,-0.1 -0.1,0.1 -0.2,0.1 -0.2,0.1 z m 0.3,-1.4 h -0.1 v 0.2 h 0.1 z m 0.5,2.6 v 0.1 c 0,0 0.1,0.1 0.2,0 0,0 0.1,0 0.1,-0.1 v -0.1 z m 0.1,2 -0.1,0.2 h 0.1 v -0.1 c 0.1,0 0.1,0 0,-0.1 z m 0.3,-2.9 v 0.1 h 0.1 v -0.1 c 0,0.1 -0.1,0.1 -0.1,0 z m 0.8,-1 V 35 c 0,0 0,0.1 0.1,0.1 h 0.1 V 35 34.8 L 87,34.7 c 0,0.1 -0.1,0.1 -0.1,0.1 z m 0.5,-0.4 c 0.1,0.1 0.1,0.1 0.2,0.1 0.1,0 0.2,-0.1 0.2,-0.1 l 0.1,-0.1 v -0.1 h -0.1 c -0.3,-0.1 -0.4,0 -0.4,0.2 z m 0,5.7 z m 1.5,-5.3 V 35 H 89 v -0.1 c 0,-0.1 0,-0.1 -0.1,-0.1 z m 0.2,5.2 h 0.1 v -0.2 h -0.1 z m 0.5,0 c 0,0 0,0.1 0,0 0.1,0.1 0.2,0.1 0.2,0.1 V 40 c 0,-0.1 -0.1,-0.1 -0.2,-0.1 z m 0,-0.6 h 0.1 v -0.1 z m 0.6,-1.2 c 0.2,0.1 0.2,0.1 0.3,0.1 0.1,0 0.1,-0.1 0.1,-0.2 V 38 37.8 c 0,0 -0.1,0.1 -0.3,0.1 -0.1,0 -0.2,0.1 -0.1,0.3 z m 0.1,-0.7 h 0.2 v -0.3 h -0.2 z m 0.6,2.4 c -0.1,0 -0.1,0.1 -0.1,0.2 v 0.1 l 0.1,-0.1 c 0.1,0 0.1,0 0,-0.2 0.1,0.1 0,0 0,0 z m 4.4,-7.6 h 0.4 c 0.2,0 0.3,0 0.3,0.1 v 1 c 0,0.1 0,0.2 0.1,0.3 0.1,0.1 0.2,0.1 0.3,0.1 l 0.3,0.3 c 0.1,0.1 0.3,0.1 0.4,0.1 h 0.3 c 0.1,0 0.2,0 0.3,-0.1 h 0.2 c 0,0.1 0.1,0.2 0.1,0.3 V 35 h -0.2 v -0.5 h -0.1 c -0.1,0 -0.1,0 -0.2,0.1 -0.1,0 -0.1,0.1 -0.1,0.2 v 0.1 c 0,0.1 0,0.1 -0.1,0.1 H 97 c 0,0 0.1,0 0.1,-0.1 0.1,-0.1 0.1,-0.1 0.1,-0.2 0,-0.1 0,-0.1 -0.1,-0.2 -0.1,-0.1 -0.2,-0.1 -0.2,-0.1 -0.1,0 -0.1,0 -0.2,0.1 -0.1,0 -0.1,0.1 -0.1,0.2 v 0.2 c 0,0.1 0,0.2 0.1,0.2 -0.1,0.1 -0.2,0.1 -0.5,0.1 -0.2,0 -0.4,0.1 -0.4,0.2 v 0.2 c 0.1,0.1 0.1,0.2 0.1,0.4 v 0.8 c -0.1,0.1 -0.1,0.2 -0.1,0.2 0,0.1 0,0.1 0.1,0.2 0,0.1 0.1,0.2 0.1,0.2 v 0.2 c 0,0.1 0,0.3 -0.1,0.5 0.1,0.1 0.1,0.2 0.1,0.3 v 0.2 c 0,0.1 0.1,0.1 0.2,0.2 0.1,0.1 0.2,0.3 0.3,0.4 0.1,0.1 0.3,0.2 0.4,0.2 h 0.5 v 0.2 h 0.2 c 0.1,0 0.1,-0.1 0.1,-0.1 v -0.1 c 0.1,-0.1 0.2,-0.2 0.4,-0.2 0.2,-0.1 0.4,-0.1 0.4,-0.2 0,-0.1 0,-0.1 -0.1,-0.2 0.1,-0.2 0.2,-0.3 0.2,-0.4 0.1,-0.1 0.1,-0.2 0.2,-0.2 V 39 c 0,0.3 0,0.6 -0.1,0.8 -0.1,0.2 -0.2,0.3 -0.5,0.4 0,0.1 -0.1,0.2 -0.2,0.2 h -0.7 c -0.1,0 -0.1,0 -0.2,0.1 -0.1,-0.2 -0.2,-0.3 -0.3,-0.3 -0.1,0 -0.2,0 -0.3,0.1 -0.2,0.1 -0.3,0.1 -0.4,0.1 -0.1,0 -0.1,0 -0.2,-0.1 V 40.2 40.1 H 96 l -0.1,0.1 H 95.8 L 95.6,40 C 95.5,39.9 95.4,39.7 95.3,39.4 95.2,39.1 95.1,38.9 95.1,38.6 V 38.4 38 37.5 36.5 35.7 35 c -0.1,-0.1 -0.3,-0.2 -0.5,-0.3 -0.2,0 -0.4,-0.1 -0.7,-0.1 h -0.6 c 0.1,-0.1 0.2,-0.1 0.2,-0.2 0,-0.1 0,-0.1 -0.1,-0.2 L 93.2,34 c 0.1,0 0.1,-0.1 0.2,-0.1 h 0.2 c 0.1,0 0.2,0 0.3,0.1 0.2,0 0.3,0.1 0.3,0.1 h 0.2 c 0.1,0 0.2,0.1 0.3,0.1 0.2,0 0.3,-0.1 0.4,-0.2 C 95,34 95,33.9 95,33.8 v -0.1 c 0,0 0.1,-0.1 0.1,-0.2 l 0.2,-1.2 m -1.2,2.3 c 0,0 0,0.1 0,0 l 0.1,0.1 c 0,0 0,-0.1 0.1,-0.1 v -0.1 c -0.1,0 -0.2,0 -0.2,0.1 z m 0.7,0.1 H 95 v -0.1 h -0.1 c 0,0 -0.1,0 -0.1,0.1 0,-0.1 -0.1,-0.1 0,0 z m 0.4,0.6 c 0,0.1 0.1,0.1 0.2,0.1 0.1,0 0.1,0 0.2,-0.1 0.1,0 0.1,-0.1 0,-0.2 0,-0.1 -0.1,-0.1 -0.2,-0.1 -0.1,0 -0.2,0 -0.2,0.1 z m 0.2,3.3 v 0.1 h 0.1 c 0.1,0 0.2,0 0.2,-0.2 0,-0.1 0,-0.1 -0.1,-0.1 h -0.2 c 0,0 -0.1,0.1 0,0.2 -0.1,-0.1 -0.1,0 0,0 z m 0,-4.5 c 0,0.1 0,0.1 0,0 l 0.1,0.1 c 0.1,0 0.2,-0.1 0.2,-0.2 0,-0.1 -0.1,-0.1 -0.1,-0.1 -0.1,0 -0.1,0 -0.1,0.1 -0.1,0 -0.2,0.1 -0.1,0.1 z m 0,3.8 V 38 h 0.1 c 0,0 0,-0.1 -0.1,-0.1 z m 0,-1.1 z m 0,-1.1 v 0.2 h 0.1 v -0.1 -0.1 z m 0.1,-1.3 -0.1,0.1 v 0.2 h 0.2 c 0.1,0 0.1,0 0.1,-0.1 v -0.1 c -0.1,-0.1 -0.2,-0.1 -0.2,-0.1 z m 0,-1.2 c -0.1,0 -0.1,0 -0.1,0.1 v 0.2 c 0,0 0.1,0 0.1,0.1 h 0.1 l 0.1,-0.1 c 0.1,-0.1 0.1,-0.1 0.1,-0.2 -0.1,0 -0.1,-0.1 -0.1,-0.1 z m 0,-0.6 v 0.2 h 0.1 l 0.1,-0.1 -0.1,-0.1 z m 0.4,1.3 0.1,0.1 c 0,0 0.1,0.1 0.2,0 0.1,0 0.1,-0.1 0.1,-0.2 h -0.1 -0.1 c -0.1,0.1 -0.2,0.1 -0.2,0.1 z m 0.2,0.5 c -0.1,0 -0.1,0.1 -0.2,0.1 v 0.3 l 0.2,0.1 c 0.1,0 0.1,0 0.2,-0.1 0.1,-0.1 0.1,-0.1 0.1,-0.2 0,-0.1 0,-0.1 -0.1,-0.2 z m 0.8,5.2 c 0,0.1 -0.1,0.1 -0.1,0.1 v 0.1 H 97 v -0.1 -0.1 c 0,0.1 -0.1,0 -0.1,0 z m 7.4,-5.8 c 0.1,0 0.6,0.1 1.3,0.1 0.7,0 1.1,0.3 1.2,0.8 V 35 c 0,0.1 0.1,0.1 0.2,0.1 h 0.1 c 0,0 0.1,0 0.1,-0.1 -0.1,0.1 -0.1,0.1 -0.1,0.2 0,0 0,0.1 0.1,0.2 0.1,0.1 0.1,0.2 0.1,0.3 0.1,0.1 0.2,0.2 0.4,0.2 l 0.1,0.4 c 0,-0.1 -0.1,-0.1 -0.2,-0.1 h -0.1 c 0,0 -0.1,0.1 -0.1,0.2 v 0.2 c 0,0 0.1,0.1 0.2,0.1 0.1,0 0.2,0.1 0.2,0.2 V 37 c -0.1,0.1 -0.3,0.1 -0.4,0.1 -0.1,0 -0.2,0.1 -0.2,0.2 v 0.3 H 107 c 0.1,-0.1 0.1,-0.1 0.1,-0.2 0,-0.1 0,-0.1 -0.1,-0.2 -0.1,-0.1 -0.1,-0.1 -0.3,-0.1 -0.1,0 -0.3,0.1 -0.6,0.1 -0.3,0 -0.5,0.1 -0.6,0.1 -0.1,-0.1 -0.2,-0.2 -0.4,-0.2 -0.2,0 -0.3,0 -0.4,-0.1 -0.1,0 -0.1,0.1 -0.2,0.1 l -0.2,0.2 c 0,0 -0.1,-0.1 -0.4,-0.1 -0.2,-0.1 -0.4,-0.1 -0.5,-0.1 -0.1,0 -0.2,0 -0.3,0.1 -0.1,0 -0.2,0 -0.3,-0.1 -0.1,-0.1 -0.2,-0.1 -0.3,-0.1 -0.1,0 -0.2,0.1 -0.2,0.2 l -0.1,0.6 h -0.1 -0.1 c 0,0 -0.1,0 -0.1,0.1 0,0.1 0.1,0.2 0.2,0.2 0.1,0.1 0.2,0.1 0.2,0.2 0.1,0 0.1,0.1 0.1,0.3 0,0.2 0.1,0.3 0.3,0.3 h 0.3 c 0,0 0.1,0.1 0.1,0.3 0,0.2 0.1,0.3 0.2,0.3 h 0.2 v 0.2 c 0,-0.1 0.1,-0.2 0.2,-0.2 h 1.6 c 0.2,0 0.4,0 0.6,-0.1 0.2,0 0.3,-0.1 0.4,-0.2 0,-0.1 -0.1,-0.1 -0.1,-0.2 0,-0.1 0,-0.1 0.1,-0.2 0,-0.1 0.1,-0.1 0.1,-0.2 h 0.3 c 0.1,0 0.1,0 0.1,-0.1 l -0.3,-0.3 0.2,-0.2 c 0.1,-0.1 0.2,-0.1 0.3,-0.1 0.1,0 0.2,0 0.3,0.1 h 0.3 v 0.1 c 0,0.1 -0.1,0.1 -0.2,0.2 -0.1,0 -0.2,0.1 -0.2,0.1 v 0.5 c 0,0.1 0,0.2 -0.1,0.3 h -0.4 -0.1 l -0.1,0.1 v 0.4 c 0,0.1 0,0.1 -0.1,0.2 h -0.2 c -0.2,0 -0.4,0 -0.5,0.1 -0.1,0.1 -0.1,0.1 -0.2,0.3 0,0.1 -0.1,0.1 -0.3,0.1 -0.2,0 -0.3,0.1 -0.3,0.1 h -0.7 -0.4 c -0.1,0 -0.2,-0.1 -0.3,-0.1 v -0.1 c 0,-0.1 0,-0.1 -0.1,-0.2 0,0 -0.1,-0.1 -0.2,-0.1 H 103 c -0.1,0 -0.3,0 -0.4,-0.1 -0.1,-0.1 -0.3,-0.1 -0.4,-0.3 0,-0.1 -0.1,-0.2 -0.1,-0.2 -0.1,-0.1 -0.2,-0.1 -0.3,-0.2 0,0 0,-0.1 0.1,-0.2 0.1,-0.1 0.1,-0.1 0.1,-0.2 0,0 0,-0.1 -0.1,-0.1 0,0 0,-0.1 -0.1,-0.1 h -0.2 c -0.1,0 -0.2,-0.1 -0.2,-0.2 v -0.1 c 0,-0.1 0,-0.2 -0.1,-0.3 -0.1,-0.1 -0.1,-0.2 -0.1,-0.3 0,-0.1 0,-0.2 0.1,-0.2 v -0.2 c 0,-0.1 0,-0.3 -0.1,-0.5 -0.1,-0.2 -0.1,-0.4 -0.1,-0.4 v -0.2 c 0,-0.1 0.1,-0.1 0.2,-0.2 0,-0.1 -0.1,-0.1 -0.1,-0.2 0,-0.1 0.1,-0.2 0.3,-0.4 0.2,-0.1 0.3,-0.3 0.3,-0.4 0,-0.1 0,-0.2 -0.1,-0.3 0.1,0 0.2,0 0.4,-0.1 0.1,0 0.2,-0.1 0.3,-0.2 v -0.1 c 0,-0.2 0.2,-0.3 0.6,-0.3 1,-0.1 1.2,-0.1 1.3,-0.2 m -2.2,1.9 V 36 h 0.1 c 0,0 0.1,0 0.1,-0.1 0,0 0.1,-0.1 0,-0.1 0,-0.1 -0.1,-0.1 -0.2,-0.1 z m 0.3,1.2 V 37 c 0,0 0,0.1 0.1,0.1 0.1,0 0.1,0 0.2,-0.1 0.1,-0.1 0.1,-0.1 0.1,-0.2 l -0.1,-0.1 -0.1,0.1 c -0.1,0.1 -0.2,0.1 -0.2,0.1 z m 2.6,-2.5 c -0.1,0 -0.1,0 0,0 h -0.1 c -0.1,0 -0.1,0 -0.1,0.1 v 0.4 h -0.9 c -0.3,0 -0.5,0.1 -0.6,0.2 l -0.2,-0.2 -0.1,-0.1 h -0.1 c -0.1,0 -0.1,0.1 -0.1,0.2 v 0.1 c 0,0 0.1,0.1 0.2,0.1 h 0.2 c 0,0.1 0.1,0.1 0.1,0.1 0,0.1 -0.1,0.1 -0.2,0.2 -0.1,0.1 -0.2,0.1 -0.2,0.2 0,0.2 0.1,0.3 0.1,0.4 0.1,0.1 0.2,0.1 0.3,0.1 0.1,0 0.2,0 0.4,-0.1 h 0.4 c 0.1,0 0.2,0 0.3,0.1 l -0.1,0.2 -0.1,0.1 c 0,0.1 0,0.1 0.1,0.1 h 0.3 c 0.2,0 0.4,-0.1 0.4,-0.2 0,0.1 0.1,0.2 0.3,0.1 v -0.1 c 0,0 0,-0.1 0.1,-0.1 h 0.4 c 0.1,0 0.1,0 0.2,0.1 -0.1,0 -0.2,0 -0.2,0.1 -0.1,0 -0.1,0.1 -0.1,0.1 l 0.1,0.1 c 0.1,0 0.1,0 0.2,-0.1 0.1,0 0.1,-0.1 0.1,-0.1 l 0.1,0.1 c 0.1,0 0.2,0.1 0.3,0.1 0.1,0 0.2,0 0.2,-0.1 0,-0.1 0,-0.1 -0.1,-0.2 l -0.1,-0.1 c 0.1,-0.1 0.2,-0.2 0.2,-0.3 0,-0.1 0,-0.2 -0.1,-0.3 -0.1,-0.2 -0.1,-0.3 -0.1,-0.3 0,-0.1 0,-0.2 0.1,-0.2 -0.1,-0.1 -0.2,-0.2 -0.4,-0.2 -0.2,0 -0.3,-0.1 -0.5,-0.1 h -0.4 v -0.1 -0.1 c 0,0 0,-0.1 0.1,-0.2 z m -1.5,-0.1 -0.1,0.1 -0.1,0.1 v 0.1 l 0.1,0.1 h 0.1 c 0.1,0 0.1,-0.1 0.1,-0.1 0,0 0,-0.1 -0.1,-0.1 0.1,-0.2 0,-0.2 0,-0.2 z m 2.2,5.8 H 106 V 40 c 0,-0.1 -0.1,-0.1 -0.2,-0.1 -0.1,0 -0.1,0 -0.2,0.1 0.1,0 0.1,0 0.1,0.1 z m 1,-4.3 c 0,0.1 0.1,0.1 0,0 h 0.2 c 0.1,0 0.1,0 0.1,-0.1 v -0.1 h -0.1 c -0.1,0 -0.1,0 -0.1,0.1 -0.1,0 -0.1,0.1 -0.1,0.1 z m 0.2,0.5 v 0.1 h 0.1 z m 5.9,-2.5 c 0.1,0 0.6,0.1 1.3,0.1 0.7,0 1.1,0.3 1.2,0.8 V 35 c 0,0.1 0.1,0.1 0.2,0.1 h 0.1 c 0,0 0.1,0 0.1,-0.1 -0.1,0.1 -0.1,0.1 -0.1,0.2 0,0 0,0.1 0.1,0.2 0.1,0.1 0.1,0.2 0.1,0.3 0.1,0.1 0.2,0.2 0.4,0.2 l 0.1,0.4 c 0,-0.1 -0.1,-0.1 -0.2,-0.1 H 116 c 0,0 -0.1,0.1 -0.1,0.2 v 0.2 c 0,0 0.1,0.1 0.2,0.1 0.1,0 0.2,0.1 0.2,0.2 V 37 c -0.1,0.1 -0.3,0.1 -0.4,0.1 -0.1,0 -0.2,0.1 -0.2,0.2 v 0.3 h -0.2 c 0.1,-0.1 0.1,-0.1 0.1,-0.2 0,-0.1 0,-0.1 -0.1,-0.2 -0.1,-0.1 -0.1,-0.1 -0.3,-0.1 -0.1,0 -0.3,0.1 -0.6,0.1 -0.3,0 -0.5,0.1 -0.6,0.1 -0.1,-0.1 -0.2,-0.2 -0.4,-0.2 -0.2,0 -0.3,0 -0.4,-0.1 -0.1,0 -0.1,0.1 -0.2,0.1 l -0.2,0.2 c 0,0 -0.1,-0.1 -0.4,-0.1 -0.2,-0.1 -0.4,-0.1 -0.5,-0.1 -0.1,0 -0.2,0 -0.3,0.1 -0.1,0 -0.2,0 -0.3,-0.1 C 111.2,37 111.1,37 111,37 c -0.1,0 -0.2,0.1 -0.2,0.2 l -0.1,0.6 h -0.1 -0.1 c 0,0 -0.1,0 -0.1,0.1 0,0.1 0.1,0.2 0.2,0.2 0.1,0.1 0.2,0.1 0.2,0.2 0.1,0 0.1,0.1 0.1,0.3 0,0.2 0.1,0.3 0.3,0.3 h 0.3 c 0,0 0.1,0.1 0.1,0.3 0,0.2 0.1,0.3 0.2,0.3 h 0.2 v 0.2 c 0,-0.1 0.1,-0.2 0.2,-0.2 h 1.6 c 0.2,0 0.4,0 0.6,-0.1 0.2,0 0.3,-0.1 0.4,-0.2 0,-0.1 -0.1,-0.1 -0.1,-0.2 0,-0.1 0,-0.1 0.1,-0.2 0,-0.1 0.1,-0.1 0.1,-0.2 h 0.3 c 0.1,0 0.1,0 0.1,-0.1 L 115,38.2 115.2,38 c 0.1,-0.1 0.2,-0.1 0.3,-0.1 0.1,0 0.2,0 0.3,0.1 h 0.3 v 0.1 c 0,0.1 -0.1,0.1 -0.2,0.2 -0.1,0 -0.2,0.1 -0.2,0.1 v 0.5 c 0,0.1 0,0.2 -0.1,0.3 h -0.4 -0.1 l -0.1,0.1 v 0.4 c 0,0.1 0,0.1 -0.1,0.2 h -0.2 c -0.2,0 -0.4,0 -0.5,0.1 -0.1,0.1 -0.1,0.1 -0.2,0.3 0,0.1 -0.1,0.1 -0.3,0.1 -0.2,0 -0.3,0.1 -0.3,0.1 h -0.6 -0.4 c -0.1,0 -0.2,-0.1 -0.3,-0.1 v -0.1 c 0,-0.1 0,-0.1 -0.1,-0.2 0,0 -0.1,-0.1 -0.2,-0.1 h -0.2 c -0.1,0 -0.3,0 -0.4,-0.1 -0.1,-0.1 -0.3,-0.1 -0.4,-0.3 0,-0.1 -0.1,-0.2 -0.1,-0.2 -0.1,-0.1 -0.2,-0.1 -0.3,-0.2 0,0 0,-0.1 0.1,-0.2 0.1,-0.1 0.1,-0.1 0.1,-0.2 0,0 0,-0.1 -0.1,-0.1 0,0 0,-0.1 -0.1,-0.1 h -0.2 c -0.1,0 -0.2,-0.1 -0.2,-0.2 v -0.1 c 0,-0.1 0,-0.2 -0.1,-0.3 -0.1,-0.1 -0.1,-0.2 -0.1,-0.3 0,-0.1 0,-0.2 0.1,-0.2 v -0.2 c 0,-0.1 0,-0.3 -0.1,-0.5 -0.1,-0.2 -0.1,-0.4 -0.1,-0.4 v -0.2 c 0,-0.1 0.1,-0.1 0.2,-0.2 0,-0.1 -0.1,-0.1 -0.1,-0.2 0,-0.1 0.1,-0.2 0.3,-0.4 0.2,-0.1 0.3,-0.3 0.3,-0.4 0,-0.1 0,-0.2 -0.1,-0.3 0.1,0 0.2,0 0.4,-0.1 0.1,0 0.2,-0.1 0.3,-0.2 v -0.1 c 0,-0.2 0.2,-0.3 0.6,-0.3 0.9,-0.1 1.1,-0.1 1.2,-0.2 m -2.2,1.9 V 36 h 0.1 c 0,0 0.1,0 0.1,-0.1 0,0 0.1,-0.1 0,-0.1 0,-0.1 -0.1,-0.1 -0.2,-0.1 z m 0.3,1.2 V 37 c 0,0 0,0.1 0.1,0.1 0.1,0 0.1,0 0.2,-0.1 0.1,-0.1 0.1,-0.1 0.1,-0.2 l -0.1,-0.1 -0.1,0.1 c -0.1,0.1 -0.2,0.1 -0.2,0.1 z m 2.5,-2.5 h -0.1 c -0.1,0 -0.1,0 -0.1,0.1 v 0.4 h -0.9 c -0.3,0 -0.5,0.1 -0.6,0.2 l -0.2,-0.2 -0.1,-0.1 h -0.1 c -0.1,0 -0.1,0.1 -0.1,0.2 v 0.1 c 0,0 0.1,0.1 0.2,0.1 h 0.2 c 0,0.1 0.1,0.1 0.1,0.1 0,0.1 -0.1,0.1 -0.2,0.2 -0.1,0.1 -0.2,0.1 -0.2,0.2 0,0.2 0.1,0.3 0.1,0.4 0.1,0.1 0.2,0.1 0.3,0.1 0.1,0 0.2,0 0.4,-0.1 0.2,0 0.3,-0.1 0.4,-0.1 0.1,0 0.2,0 0.3,0.1 l -0.1,0.2 -0.1,0.1 c 0,0.1 0,0.1 0.1,0.1 h 0.3 c 0.2,0 0.4,-0.1 0.4,-0.2 0,0.1 0.1,0.2 0.3,0.1 v -0.1 c 0,0 0,-0.1 0.1,-0.1 h 0.4 c 0.1,0 0.1,0 0.2,0.1 -0.1,0 -0.2,0 -0.2,0.1 -0.1,0 -0.1,0.1 -0.1,0.1 l 0.1,0.1 c 0.1,0 0.1,0 0.2,-0.1 0.1,0 0.1,-0.1 0.1,-0.1 l 0.1,0.1 c 0.1,0 0.2,0.1 0.3,0.1 0.1,0 0.2,0 0.2,-0.1 0,-0.1 0,-0.1 -0.1,-0.2 l -0.1,-0.1 c 0.1,-0.1 0.2,-0.2 0.2,-0.3 0,-0.1 0,-0.2 -0.1,-0.3 -0.1,-0.2 -0.1,-0.3 -0.1,-0.3 0,-0.1 0,-0.2 0.1,-0.2 -0.1,-0.1 -0.2,-0.2 -0.4,-0.2 -0.2,0 -0.3,-0.1 -0.5,-0.1 h -0.4 v -0.1 -0.1 c 0,0 0,-0.1 0.1,-0.2 z m -1.5,-0.1 -0.1,0.1 -0.1,0.1 v 0.1 l 0.1,0.1 h 0.1 c 0.1,0 0.1,-0.1 0.1,-0.1 0,0 0,-0.1 -0.1,-0.1 0.1,-0.2 0.1,-0.2 0,-0.2 z m 2.3,5.8 h 0.3 V 40 c 0,-0.1 -0.1,-0.1 -0.2,-0.1 -0.1,0 -0.1,0 -0.2,0.1 0.1,0 0.1,0.1 0.1,0.1 z m 1,-4.3 c 0,0.1 0,0.1 0,0 h 0.2 c 0.1,0 0.1,0 0.1,-0.1 v -0.1 h -0.1 c -0.1,0 -0.1,0 -0.1,0.1 -0.1,0 -0.1,0.1 -0.1,0.1 z m 0.2,0.5 v 0.1 h 0.1 z m 7.1,-2.4 h 0.2 l 0.1,0.1 v 0.3 c 0,0.1 0,0.1 -0.1,0.2 0.1,0.1 0.2,0.1 0.3,0.1 h 0.5 c 0,-0.1 0.1,-0.1 0.3,-0.1 0.1,0 0.2,0 0.2,-0.1 0,0 0,-0.1 -0.1,-0.1 h -0.2 V 34 l 0.3,-0.1 c 0.1,0.3 0.2,0.6 0.4,0.9 l 0.5,-0.2 c 0,0 0.1,0.1 0.1,0.4 0,0.2 0.1,0.3 0.2,0.3 -0.1,0.2 -0.1,0.3 -0.2,0.3 v 0.3 c -0.2,0.1 -0.4,0.1 -0.7,0.2 -0.1,0 -0.2,0 -0.2,-0.1 v -0.1 l 0.2,-0.2 v 0.1 c 0,0 0,0.1 0.1,0.1 h 0.1 c 0.1,0 0.1,0 0.2,-0.1 0.1,0 0.1,-0.1 0.2,-0.2 V 35.4 35.2 35 c 0,-0.1 0,-0.2 -0.1,-0.2 -0.1,0 -0.1,-0.1 -0.2,-0.1 -0.1,0 -0.2,0 -0.2,0.1 -0.1,0.1 -0.1,0.2 -0.1,0.3 v 0.4 c 0,0 -0.1,0 -0.1,-0.1 v -0.2 c 0.1,0 0.1,-0.1 0.1,-0.1 V 35 34.8 c -0.1,0 -0.2,-0.1 -0.3,-0.1 h -0.3 c -0.2,0 -0.4,0.1 -0.5,0.2 -0.1,0 -0.1,-0.1 -0.2,-0.1 h -0.3 l -0.1,0.2 c -0.1,0 -0.1,-0.1 -0.2,-0.1 H 122 c -0.1,0 -0.1,0.1 -0.1,0.2 0,0.1 -0.1,0.2 -0.1,0.2 h 0.2 c -0.1,0 -0.2,0.1 -0.2,0.3 -0.1,0.2 -0.2,0.3 -0.3,0.3 -0.2,0.1 -0.2,0.1 -0.2,0.2 0,0 0,0.1 0.1,0.2 0.1,0.1 0.1,0.2 0.1,0.2 0,0.1 -0.1,0.2 -0.2,0.2 0.1,0.1 0.1,0.2 0.1,0.3 0,0.1 0,0.2 -0.1,0.3 -0.1,0.1 -0.1,0.2 -0.1,0.3 0,0.1 0.1,0.2 0.3,0.3 -0.1,0 -0.1,0 -0.2,0.1 -0.1,0 -0.1,0.1 -0.1,0.2 -0.1,-0.1 -0.2,-0.1 -0.2,-0.1 -0.1,0 -0.2,0 -0.3,0.1 -0.1,0 -0.1,0.1 -0.1,0.1 0,0 0,0.1 0.1,0.1 0,0.1 0.1,0.1 0.2,0.1 0,0 0.1,0 0.2,-0.1 0.1,0 0.2,-0.1 0.2,-0.1 0.1,0 0.1,0 0.2,0.1 l -0.2,0.2 c 0,0 -0.1,0.1 -0.1,0.2 0.2,0.1 0.4,0.2 0.8,0.2 0.4,0.1 0.7,0.1 0.8,0.2 0.1,0.1 0.3,0.2 0.3,0.3 0.1,0.1 0.1,0.3 0.1,0.4 l -0.2,0.4 c -0.1,0 -0.2,-0.1 -0.3,-0.1 h -0.4 L 122.2,40.1 122.1,40 H 122 l -0.1,0.1 v 0.1 l 0.1,0.1 h -0.4 c -0.1,0 -0.2,0 -0.3,-0.1 -0.1,0 -0.1,-0.1 -0.1,-0.2 0,-0.1 0,-0.1 -0.1,-0.1 -0.1,0 -0.1,-0.1 -0.2,-0.1 h -0.2 c -0.1,0.2 -0.2,0.3 -0.4,0.4 -0.2,0.1 -0.4,0.1 -0.6,0.1 h -1.1 c -0.1,0 -0.1,0 -0.2,-0.1 V 40 39.8 39.7 39.5 c 0.1,0 0.2,0 0.3,0.1 0.2,0.1 0.3,0.1 0.3,0.1 h 0.1 c 0.1,0.1 0.2,0.2 0.4,0.2 l 0.2,-0.2 c 0,-0.1 0.1,-0.2 0.1,-0.3 -0.1,0 -0.1,-0.1 -0.1,-0.1 v -0.2 h 0.3 c 0.1,0 0.2,0 0.3,-0.1 0,-0.1 0,-0.3 0.1,-0.6 0,-0.3 0.1,-0.5 0.1,-0.6 v -0.4 c 0,-0.1 -0.1,-0.2 -0.2,-0.3 l 0.2,-0.2 v -0.2 -0.2 -0.1 -0.1 c 0.1,0.1 0.1,0.1 0.2,0.1 h 0.2 v -0.1 c -0.1,0 -0.1,-0.1 -0.2,-0.1 h -0.1 l -0.1,0.1 c -0.1,-0.1 -0.1,-0.2 -0.1,-0.3 0,-0.1 0,-0.2 0.1,-0.3 0.1,-0.1 0.1,-0.2 0.2,-0.4 h 0.3 c 0.1,0 0.1,-0.1 0.1,-0.1 0,0 0,-0.1 -0.1,-0.2 0,-0.1 -0.1,-0.2 -0.1,-0.2 h -0.1 c -0.2,0 -0.3,0.1 -0.4,0.3 v 0.1 c 0.1,0 0,-0.1 0,-0.2 -0.1,-0.1 -0.2,-0.1 -0.3,-0.1 -0.1,0 -0.1,0 -0.2,0.1 h -0.5 l -0.2,0.1 c 0,-0.1 0,-0.1 -0.1,-0.2 C 119,34.8 119,34.7 119,34.6 v -0.2 c 0,-0.1 0.1,-0.1 0.2,-0.2 h -0.1 -0.4 c -0.1,0 -0.2,0.1 -0.2,0.2 v 0.1 c 0.1,0 0.2,0.1 0.2,0.1 v 0.2 l 0.1,0.1 c 0,-0.1 -0.1,-0.1 -0.2,-0.1 -0.1,0 -0.2,0 -0.2,-0.1 v -0.3 c 0,-0.1 -0.1,-0.2 -0.1,-0.2 0.1,0 0.2,-0.1 0.3,-0.1 h 0.8 l -0.2,0.2 c 0,0.1 -0.1,0.1 -0.1,0.1 0,0.1 0.1,0.1 0.2,0.2 0.1,0 0.1,-0.1 0.2,-0.1 l 0.1,-0.1 v -0.3 c 0,0 0.1,0.1 0.1,0.2 0,0.1 0.1,0.2 0.2,0.3 h 0.8 c 0.2,0 0.3,-0.1 0.4,-0.2 h 0.4 l 0.2,-0.2 c 0.1,0 0.1,0.1 0.1,0.1 0,0 0,0.1 -0.1,0.2 0,0 -0.1,0 -0.1,0.1 l -0.1,0.1 v 0.2 c 0.2,-0.1 0.3,-0.2 0.5,-0.3 0.1,-0.1 0.1,-0.2 0.1,-0.3 v -0.1 c 0.3,-0.2 0.3,-0.3 0.4,-0.3 m -3,6.4 h 0.1 v -0.1 -0.1 h -0.1 z m 0.3,-5.1 0.1,0.1 c -0.1,0 -0.1,0.1 -0.1,0.1 -0.1,0 -0.1,0 -0.1,-0.1 z m 0.5,4.4 h -0.4 v 0.2 l 0.1,0.1 c 0,0 0.1,0 0.1,-0.1 v -0.2 z m 0.2,-4.1 c 0,0.1 0,0.1 0.1,0.2 0.1,0 0.1,0.1 0.1,0.1 l 0.1,-0.1 c 0.1,0 0.1,-0.1 0.1,-0.2 0,-0.1 -0.1,-0.2 -0.2,-0.2 0,0.1 -0.1,0.1 -0.2,0.2 z m 0.1,1.4 h 0.1 c 0,0 0,-0.1 0.1,-0.1 h -0.2 z m 0,2 0.1,0.1 h 0.1 l 0.1,-0.1 v -0.1 h -0.1 c -0.1,-0.1 -0.2,0 -0.2,0.1 z m 0.7,-4.3 v 0.2 c 0,0.1 -0.1,0.2 -0.1,0.2 0,0.1 0.1,0.1 0.2,0.2 h -0.1 c 0,0 0,0.1 0.1,0.1 0,0 0.1,0 0.1,0.1 l -0.2,0.2 -0.1,0.1 c 0,0.1 0.1,0.1 0.2,0.1 0,0 0.1,0 0.2,-0.1 0.1,0 0.1,-0.1 0.1,-0.1 v -0.1 c 0,-0.1 0,-0.1 -0.1,-0.1 -0.1,0 -0.1,-0.1 -0.2,-0.1 l 0.2,-0.2 c 0,-0.1 0.1,-0.2 0.1,-0.2 0,-0.1 -0.1,-0.1 -0.2,-0.2 -0.1,0 -0.1,-0.1 -0.2,-0.1 z m 0.1,4.7 c -0.1,0.1 -0.1,0.1 -0.1,0.2 0,0.1 0.1,0.1 0.3,0.2 0.2,0.1 0.3,0.1 0.3,0.2 l 0.1,-0.1 c 0,0 0,-0.1 -0.1,-0.1 0,-0.1 -0.1,-0.1 -0.1,-0.2 v -0.1 c 0,-0.1 -0.1,-0.1 -0.1,-0.1 z m 0.5,0.1 v 0.1 h 0.2 c 0.1,0 0.1,-0.1 0.2,-0.1 0,0 0.1,-0.1 0,-0.2 -0.1,0 -0.1,-0.1 -0.2,-0.1 -0.1,0 -0.1,0 -0.2,0.1 z m 0.4,-4.2 c 0,0 0.1,0 0,0 0.1,0.1 0.1,0.1 0.1,0.2 h -0.2 z m 0.8,-0.9 v -0.1 l 0.1,-0.1 c 0.1,0 0.1,0 0.1,0.1 v 0.1 z M 50.9,28.8 V 4.2 h 11.3 c 6,0 9.1,2.4 9.1,7.1 0,4.9 -3,7.3 -9,7.3 H 56.2 V 28.8 H 50.9 M 56.1,14 h 7.3 c 2.1,0 3.2,-0.9 3.2,-2.7 C 66.5,9.7 65.5,8.8 63.4,8.8 H 56.1 Z M 79.9,4.2 v 14.2 c 0,1.9 0.6,3.2 1.7,4.1 1.2,0.9 2.6,1.3 4.3,1.3 1.7,0 3.2,-0.4 4.3,-1.3 1.2,-0.9 1.7,-2.2 1.7,-4.1 V 4.2 h 5.2 v 15.6 c 0,2.5 -1.1,4.6 -3.2,6.4 -2.1,1.7 -4.8,2.6 -8,2.6 -3.2,0 -5.9,-0.9 -8,-2.6 -2.1,-1.7 -3.2,-3.9 -3.2,-6.4 V 4.2 h 5.2 m 38.4,13.9 6.5,10.7 h -5.9 L 112.7,18.6 H 108 v 10.2 h -5.2 V 4.2 H 114 c 6,0 9.1,2.4 9.1,7.1 0,3.5 -1.6,5.8 -4.8,6.8 M 107.9,14 h 7.3 c 2.1,0 3.2,-0.9 3.2,-2.7 -0.1,-1.6 -1.1,-2.5 -3.2,-2.5 h -7.3 z m 19.5,14.8 V 4.2 h 19 V 8.8 H 132.6 V 14 H 143 v 4.6 h -10.4 v 5.6 h 13.8 v 4.6 h -19 m 24.6,-4 c 0.5,-0.4 1.1,-0.7 1.9,-0.7 0.8,0 1.5,0.2 1.9,0.7 0.5,0.4 0.7,1 0.7,1.6 0,0.7 -0.2,1.2 -0.7,1.6 -0.5,0.4 -1.1,0.7 -1.9,0.7 -0.8,0 -1.4,-0.2 -1.9,-0.7 -0.5,-0.4 -0.7,-1 -0.7,-1.6 0,-0.6 0.2,-1.1 0.7,-1.6 m 2.9,-2.6 1.4,-15.3 c 0,-0.8 -0.2,-1.3 -0.5,-1.7 -0.3,-0.3 -0.9,-0.5 -1.8,-0.5 -0.9,0 -1.5,0.2 -1.8,0.5 -0.3,0.3 -0.5,0.9 -0.5,1.7 l 0.8,15.3 z"
       id="path1788" />
    <text
       transform="scale(1.0034989,0.99651331)"
       id="text1903"
       y="46.899338"
       x="171.81183"
       style="font-style:normal;font-weight:normal;font-size:2.61112px;line-height:1.25;font-family:sans-serif;fill:#00b4b4;fill-opacity:1;stroke:none;stroke-width:0.0652781"
       xml:space="preserve"><tspan
         style="fill:#00b4b4;fill-opacity:1;stroke-width:0.0652781"
         y="46.899338"
         x="171.81183"
         id="tspan1901"
         sodipodi:role="line">GOADO</tspan></text>
  </g>
</svg>
